<svg version="1.1" xmlns="http://www.w3.org/2000/svg" xmlns:xlink="http://www.w3.org/1999/xlink" width="58.93412" height="43.47032" viewBox="0,0,58.93412,43.47032"><g transform="translate(-216.9944,-31.06113)"><g data-paper-data="{&quot;isPaintingLayer&quot;:true}" fill-rule="nonzero" stroke="none" stroke-linecap="butt" stroke-linejoin="miter" stroke-miterlimit="10" stroke-dasharray="" stroke-dashoffset="0" style="mix-blend-mode: normal"><path d="M238.25035,34.70161c1.93989,-3.37438 7.57367,-5.10196 10.54444,-2.07473c0.93854,0.95637 1.44683,2.02072 1.6484,3.12711c2.15977,-1.2017 4.62532,-1.66388 7.15596,-0.55252c3.47086,1.52427 4.46631,5.57525 3.06995,8.70947c0.51888,0.01307 0.92336,0.04832 1.1034,0.11718c3.58868,1.37255 5.07024,5.14648 2.86316,8.38188c-0.33582,0.49228 -0.77415,0.9121 -1.25891,1.275c0.26607,0.27784 0.51054,0.5586 0.72963,0.83278c2.87101,3.59282 1.69437,8.66389 -2.80753,10.43522c-1.01936,0.40108 -2.15011,0.50434 -3.25562,0.48286c-0.39783,2.0368 -1.83306,4.04233 -3.29464,4.82438c-0.8386,0.44871 -4.70304,0.39819 -5.57475,0.03261c-0.62537,-0.26226 -1.2442,-0.60494 -1.78156,-1.03544c-0.34025,0.64753 -0.80469,1.24614 -1.25043,1.82051c-0.87208,1.12372 -3.48297,3.18587 -4.93336,3.37346c-4.70158,0.60807 -6.58214,-2.33363 -6.93043,-5.90146c-0.94272,0.35308 -2.13765,0.50036 -3.18633,0.73713c-3.28234,0.74108 -7.6165,0.48434 -9.80516,-2.59414c-2.1574,-3.03451 -2.33575,-7.11702 0.89648,-9.43883c0.31346,-0.22517 0.65237,-0.4108 1.00604,-0.5694c-3.66498,-2.39757 -7.08522,-6.69513 -5.9856,-10.11728c1.18219,-3.67914 5.2734,-3.88194 8.32697,-3.05191c-0.18566,-1.36814 -0.12964,-2.74707 0.28261,-3.87061c1.38458,-3.77356 7.69133,-6.70829 11.57424,-5.30762c0.29639,0.10692 0.58413,0.22878 0.86307,0.36436z" fill="#ffc400" stroke-width="0.5"/><path d="M252.85878,52.64425c0,5.60914 -4.47716,10.15625 -10,10.15625c-5.52284,0 -10,-4.54711 -10,-10.15625c0,-5.60914 4.47716,-10.15625 10,-10.15625c5.52284,0 10,4.54711 10,10.15625z" fill="#5d4800" stroke-width="0"/><path d="M241.14562,46.56436c-0.15811,0.47434 -0.63246,0.31623 -0.63246,0.31623l-0.31064,-0.13059c-1.04705,0 -1.32857,0.1915 -2.3143,0.58924c0,0 -0.46424,0.1857 -0.64993,-0.27854c-0.1857,-0.46424 0.27854,-0.64993 0.27854,-0.64993c1.03221,-0.40881 1.55055,-0.66076 2.6857,-0.66076l0.62686,0.18191c0,0 0.47434,0.15811 0.31623,0.63246z" fill="#ffffff" stroke-width="0.5"/><path d="M248.35878,45.78125c0,0.5 -0.5,0.5 -0.5,0.5h-0.3125c-0.86498,0 -1.539,0.08764 -2.37873,0.29757c0,0 -0.48507,0.12127 -0.60634,-0.3638c-0.12127,-0.48507 0.3638,-0.60634 0.3638,-0.60634c0.91251,-0.22813 1.68101,-0.32743 2.62127,-0.32743h0.3125c0,0 0.5,0 0.5,0.5z" fill="#ffffff" stroke-width="0.5"/><path d="M238.49702,50.31227c0,-0.9665 0.7835,-1.75 1.75,-1.75c0.9665,0 1.75,0.7835 1.75,1.75c0,0.9665 -0.7835,1.75 -1.75,1.75c-0.9665,0 -1.75,-0.7835 -1.75,-1.75z" fill="#ffffff" stroke-width="0.5"/><path d="M244.39656,50.62277c0,-0.9665 0.7835,-1.75 1.75,-1.75c0.9665,0 1.75,0.7835 1.75,1.75c0,0.9665 -0.7835,1.75 -1.75,1.75c-0.9665,0 -1.75,-0.7835 -1.75,-1.75z" fill="#ffffff" stroke-width="0.5"/><path d="M245.29697,54.87929c0.71151,0.23717 0.47434,0.94868 0.47434,0.94868l-0.17041,0.50713c-1.23581,3.02849 -4.25348,4.58091 -5.895,0.77626c0,0 -0.27854,-0.69636 0.41781,-0.9749c0.69636,-0.27854 0.9749,0.41781 0.9749,0.41781c0.95907,2.74114 2.4415,0.93737 3.10957,-0.77626l0.1401,-0.42438c0,0 0.23717,-0.71151 0.94868,-0.47434z" fill="#ffffff" stroke-width="0.5"/><path d="M274.42852,59.78259c0,-0.41421 0.33579,-0.75 0.75,-0.75c0.41421,0 0.75,0.33579 0.75,0.75c0,0.41421 -0.33579,0.75 -0.75,0.75c-0.41421,0 -0.75,-0.33579 -0.75,-0.75z" fill="#ffffff" stroke-width="0.5"/></g></g></svg>