<svg version="1.1" xmlns="http://www.w3.org/2000/svg" xmlns:xlink="http://www.w3.org/1999/xlink" width="48.67875" height="43.47032" viewBox="0,0,48.67875,43.47032"><g transform="translate(-216.9944,-31.06113)"><g data-paper-data="{&quot;isPaintingLayer&quot;:true}" fill-rule="nonzero" stroke="none" stroke-linecap="butt" stroke-linejoin="miter" stroke-miterlimit="10" stroke-dasharray="" stroke-dashoffset="0" style="mix-blend-mode: normal"><path d="M238.25035,34.70161c1.93989,-3.37438 7.57367,-5.10196 10.54444,-2.07473c0.93854,0.95637 1.44683,2.02072 1.6484,3.12711c2.15977,-1.2017 4.62532,-1.66388 7.15596,-0.55252c3.47086,1.52427 4.46631,5.57525 3.06995,8.70947c0.51888,0.01307 0.92336,0.04832 1.1034,0.11718c3.58868,1.37255 5.07024,5.14648 2.86316,8.38188c-0.33582,0.49228 -0.77415,0.9121 -1.25891,1.275c0.26607,0.27784 0.51054,0.5586 0.72963,0.83278c2.87101,3.59282 1.69437,8.66389 -2.80753,10.43522c-1.01936,0.40108 -2.15011,0.50434 -3.25562,0.48286c-0.39783,2.0368 -1.83306,4.04233 -3.29464,4.82438c-0.8386,0.44871 -4.70304,0.39819 -5.57475,0.03261c-0.62537,-0.26226 -1.2442,-0.60494 -1.78156,-1.03544c-0.34025,0.64753 -0.80469,1.24614 -1.25043,1.82051c-0.87208,1.12372 -3.48297,3.18587 -4.93336,3.37346c-4.70158,0.60807 -6.58214,-2.33363 -6.93043,-5.90146c-0.94272,0.35308 -2.13765,0.50036 -3.18633,0.73713c-3.28234,0.74108 -7.6165,0.48434 -9.80516,-2.59414c-2.1574,-3.03451 -2.33575,-7.11702 0.89648,-9.43883c0.31346,-0.22517 0.65237,-0.4108 1.00604,-0.5694c-3.66498,-2.39757 -7.08522,-6.69513 -5.9856,-10.11728c1.18219,-3.67914 5.2734,-3.88194 8.32697,-3.05191c-0.18566,-1.36814 -0.12964,-2.74707 0.28261,-3.87061c1.38458,-3.77356 7.69133,-6.70829 11.57424,-5.30762c0.29639,0.10692 0.58413,0.22878 0.86307,0.36436z" fill="#ffc400" stroke-width="0.5"/><path d="M252.85878,52.64425c0,5.60914 -4.47716,10.15625 -10,10.15625c-5.52284,0 -10,-4.54711 -10,-10.15625c0,-5.60914 4.47716,-10.15625 10,-10.15625c5.52284,0 10,4.54711 10,10.15625z" fill="#5d4800" stroke-width="0"/><path d="M235.72401,50.03515c0.27735,-0.41602 0.69338,-0.13867 0.69338,-0.13867l0.33629,0.24998c2.3932,-0.10694 3.39323,-1.43642 6.01621,-0.12492c0,0 0.44721,0.2236 0.22361,0.67082c-0.07618,0.15237 -0.17832,0.22687 -0.27989,0.25887c-0.02425,0.05993 -0.06445,0.12176 -0.12627,0.18358c-0.35356,0.35356 -0.70711,0 -0.70711,0c-1.53307,-1.54528 -2.2909,0.78283 -3.90018,1.22527l-0.625,0.15625c0,0 -0.48506,0.12127 -0.60634,-0.3638c-0.12127,-0.48507 0.3638,-0.60634 0.3638,-0.60634l0.625,-0.15625c0.58273,-0.12389 1.04371,-0.44189 1.45857,-0.77886c-0.77518,0.21572 -1.57407,0.52475 -2.73219,0.49248l-0.6012,-0.37502c0,0 -0.41603,-0.27735 -0.13868,-0.69337z" fill="#ffffff" stroke-width="0.5"/><path d="M248.92736,48.68282c0.02036,-0.13636 0.10891,-0.43282 0.49392,-0.43282c0.5,0 0.5,0.5 0.5,0.5l-0.14645,0.5098c-0.68436,0.6797 -2.09958,0.68095 -3.15651,0.82853c1.14679,0.47575 2.35881,1.28416 3.38691,0.18311l0.06259,-0.18255c0,0 0.2236,-0.44721 0.67082,-0.22361c0.44721,0.2236 0.22361,0.67082 0.22361,0.67082l-0.24991,0.44245c-1.25885,1.20278 -2.70668,0.87024 -4.03741,0.08154c-0.54296,-0.3218 -1.46299,-0.51729 -1.65018,0.10101c0,0 -0.22361,0.44721 -0.67083,0.22361c-0.44721,-0.2236 -0.2236,-0.67082 -0.2236,-0.67082c0.09182,-0.15278 0.18647,-0.28279 0.28368,-0.39253c0.01426,-0.0471 0.02882,-0.07622 0.02882,-0.07622c1.08564,-1.90075 3.04817,-0.34124 4.48455,-1.56232z" fill="#ffffff" stroke-width="0.5"/><path d="M247.23378,54.5c0.5,0 0.5,0.5 0.5,0.5l-0.00375,0.68609c-0.22172,0.87005 -1.35083,2.58379 -1.95177,0.90523c-0.15946,-0.4454 -0.09581,0.95212 -0.26304,1.39466c-0.39612,1.04825 -1.03236,1.86425 -2.24878,1.72903c-0.91058,-0.10122 -2.43118,-1.71556 -2.35103,-2.74708c-0.88505,0.28976 -1.56069,-0.09777 -2.09759,-1.11931c0,0 -0.22361,-0.44721 0.22361,-0.67082c0.44721,-0.22361 0.67082,0.22361 0.67082,0.22361c0.27645,0.59603 0.57122,0.95714 1.2083,0.51082l0.26791,-0.40186c0.08903,-0.13785 0.24402,-0.2291 0.42033,-0.2291c0.27614,0 0.5,0.22386 0.5,0.5v0.625h-0.15254c0.13269,1.03628 0.27892,2.14382 1.43238,2.31625c1.34101,0.20046 1.01517,-1.74713 1.53506,-2.40635c0.40532,-0.51395 1.65968,-0.11611 1.81385,-0.75224l-0.00375,-0.56391c0,0 0,-0.5 0.5,-0.5z" fill="#ffffff" stroke-width="0.5"/><path d="M241.14562,46.56436c-0.15811,0.47434 -0.63246,0.31623 -0.63246,0.31623l-0.31064,-0.13059c-1.04705,0 -1.32857,0.1915 -2.3143,0.58924c0,0 -0.46424,0.1857 -0.64993,-0.27854c-0.1857,-0.46424 0.27854,-0.64993 0.27854,-0.64993c1.03221,-0.40881 1.55055,-0.66076 2.6857,-0.66076l0.62686,0.18191c0,0 0.47434,0.15811 0.31623,0.63246z" fill="#ffffff" stroke-width="0.5"/><path d="M248.35878,45.78125c0,0.5 -0.5,0.5 -0.5,0.5h-0.3125c-0.86498,0 -1.539,0.08764 -2.37873,0.29757c0,0 -0.48507,0.12127 -0.60634,-0.3638c-0.12127,-0.48507 0.3638,-0.60634 0.3638,-0.60634c0.91251,-0.22813 1.68101,-0.32743 2.62127,-0.32743h0.3125c0,0 0.5,0 0.5,0.5z" fill="#ffffff" stroke-width="0.5"/></g></g></svg>