<svg version="1.1" xmlns="http://www.w3.org/2000/svg" xmlns:xlink="http://www.w3.org/1999/xlink" width="48.67875" height="43.47032" viewBox="0,0,48.67875,43.47032"><g transform="translate(-216.9944,-31.06113)"><g data-paper-data="{&quot;isPaintingLayer&quot;:true}" fill-rule="nonzero" stroke="none" stroke-linecap="butt" stroke-linejoin="miter" stroke-miterlimit="10" stroke-dasharray="" stroke-dashoffset="0" style="mix-blend-mode: normal"><path d="M238.25035,34.70161c1.93989,-3.37438 7.57367,-5.10196 10.54444,-2.07473c0.93854,0.95637 1.44683,2.02072 1.6484,3.12711c2.15977,-1.2017 4.62532,-1.66388 7.15596,-0.55252c3.47086,1.52427 4.46631,5.57525 3.06995,8.70947c0.51888,0.01307 0.92336,0.04832 1.1034,0.11718c3.58868,1.37255 5.07024,5.14648 2.86316,8.38188c-0.33582,0.49228 -0.77415,0.9121 -1.25891,1.275c0.26607,0.27784 0.51054,0.5586 0.72963,0.83278c2.87101,3.59282 1.69437,8.66389 -2.80753,10.43522c-1.01936,0.40108 -2.15011,0.50434 -3.25562,0.48286c-0.39783,2.0368 -1.83306,4.04233 -3.29464,4.82438c-0.8386,0.44871 -4.70304,0.39819 -5.57475,0.03261c-0.62537,-0.26226 -1.2442,-0.60494 -1.78156,-1.03544c-0.34025,0.64753 -0.80469,1.24614 -1.25043,1.82051c-0.87208,1.12372 -3.48297,3.18587 -4.93336,3.37346c-4.70158,0.60807 -6.58214,-2.33363 -6.93043,-5.90146c-0.94272,0.35308 -2.13765,0.50036 -3.18633,0.73713c-3.28234,0.74108 -7.6165,0.48434 -9.80516,-2.59414c-2.1574,-3.03451 -2.33575,-7.11702 0.89648,-9.43883c0.31346,-0.22517 0.65237,-0.4108 1.00604,-0.5694c-3.66498,-2.39757 -7.08522,-6.69513 -5.9856,-10.11728c1.18219,-3.67914 5.2734,-3.88194 8.32697,-3.05191c-0.18566,-1.36814 -0.12964,-2.74707 0.28261,-3.87061c1.38458,-3.77356 7.69133,-6.70829 11.57424,-5.30762c0.29639,0.10692 0.58413,0.22878 0.86307,0.36436z" fill="#ffc400" stroke-width="0.5"/><path d="M252.85878,52.64425c0,5.60914 -4.47716,10.15625 -10,10.15625c-5.52284,0 -10,-4.54711 -10,-10.15625c0,-5.60914 4.47716,-10.15625 10,-10.15625c5.52284,0 10,4.54711 10,10.15625z" fill="#5d4800" stroke-width="0"/><path d="M239.86847,52.929c0.09454,-0.14181 0.20519,-0.20306 0.30999,-0.22218c0.01009,-0.03741 0.02499,-0.07672 0.0456,-0.11793c0.00501,-0.01002 0.01013,-0.0197 0.01536,-0.02906c-0.1638,-0.08781 -0.32486,-0.17173 -0.47659,-0.24755c0,0 -0.44721,-0.22361 -0.22361,-0.67082c0.22361,-0.44721 0.67082,-0.22361 0.67082,-0.22361c0.54803,0.27421 2.13298,0.77395 2.87088,1.41295c0.09976,0.04297 0.2055,0.1232 0.25264,0.27298c0.08929,0.1291 0.13816,0.26284 0.1335,0.40063c-0.06048,1.78648 -2.48222,0.69689 -3.20709,0.28509l-0.25283,-0.16713c0,0 -0.41603,-0.27735 -0.13868,-0.69338z" fill="#ffffff" stroke-width="0.5"/><path d="M248.06744,51.64743c0.0034,0.00484 0.00678,0.00977 0.01014,0.01481c0.27735,0.41603 -0.13868,0.69338 -0.13868,0.69338l-0.08487,0.01036c-0.58971,0.87667 -3.50586,2.41489 -2.6572,0.03218c0.21566,-0.60549 2.27864,-1.59158 2.83724,-1.87448c0,0 0.44721,-0.22361 0.67082,0.22361c0.22361,0.44721 -0.22361,0.67082 -0.22361,0.67082c-0.1401,0.06897 -0.27872,0.1467 -0.41384,0.22933z" fill="#ffffff" stroke-width="0.5"/><path d="M245.7006,59.73241c-0.49029,-0.09806 -0.39223,-0.58835 -0.39223,-0.58835l0.07973,-0.39579c0.45358,-1.79687 -0.4241,-1.25481 -1.36629,-0.08025c0,0 -0.32009,0.38411 -0.7042,0.06402c-0.38411,-0.32009 -0.06402,-0.7042 -0.06402,-0.7042c1.5648,-1.82725 3.82176,-1.93036 3.10465,0.96297l-0.0693,0.34937c0,0 -0.09806,0.49029 -0.58835,0.39223z" fill="#ffffff" stroke-width="0.5"/><path d="M242.54721,49.48965c-0.15811,0.47434 -0.63246,0.31623 -0.63246,0.31623l-0.20279,-0.0681c-0.82287,-0.23835 -1.59183,-0.64419 -2.37569,-0.99256c0,0 -0.45691,-0.20307 -0.25384,-0.65998c0.20307,-0.45691 0.65998,-0.25384 0.65998,-0.25384c0.73729,0.3277 1.46898,0.72696 2.24428,0.94485l0.2443,0.08094c0,0 0.47434,0.15811 0.31623,0.63246z" fill="#ffffff" stroke-width="0.5"/><path d="M247.30682,47.45436c0.31235,0.39043 -0.07809,0.70278 -0.07809,0.70278l-0.35953,0.28726c-0.43578,0.37074 -0.92572,0.67814 -1.42725,0.95351c0,0 -0.43895,0.23943 -0.67837,-0.19952c-0.23943,-0.43895 0.19952,-0.67837 0.19952,-0.67837c0.44191,-0.23927 0.87518,-0.50619 1.25531,-0.83487l0.38563,-0.30887c0,0 0.39043,-0.31235 0.70278,0.07809z" fill="#ffffff" stroke-width="0.5"/></g></g></svg>