<svg version="1.1" xmlns="http://www.w3.org/2000/svg" xmlns:xlink="http://www.w3.org/1999/xlink" width="48.67875" height="43.47032" viewBox="0,0,48.67875,43.47032"><g transform="translate(-216.9944,-31.06113)"><g data-paper-data="{&quot;isPaintingLayer&quot;:true}" fill-rule="nonzero" stroke="none" stroke-linecap="butt" stroke-linejoin="miter" stroke-miterlimit="10" stroke-dasharray="" stroke-dashoffset="0" style="mix-blend-mode: normal"><path d="M238.25035,34.70161c1.93989,-3.37438 7.57367,-5.10196 10.54444,-2.07473c0.93854,0.95637 1.44683,2.02072 1.6484,3.12711c2.15977,-1.2017 4.62532,-1.66388 7.15596,-0.55252c3.47086,1.52427 4.46631,5.57525 3.06995,8.70947c0.51888,0.01307 0.92336,0.04832 1.1034,0.11718c3.58868,1.37255 5.07024,5.14648 2.86316,8.38188c-0.33582,0.49228 -0.77415,0.9121 -1.25891,1.275c0.26607,0.27784 0.51054,0.5586 0.72963,0.83278c2.87101,3.59282 1.69437,8.66389 -2.80753,10.43522c-1.01936,0.40108 -2.15011,0.50434 -3.25562,0.48286c-0.39783,2.0368 -1.83306,4.04233 -3.29464,4.82438c-0.8386,0.44871 -4.70304,0.39819 -5.57475,0.03261c-0.62537,-0.26226 -1.2442,-0.60494 -1.78156,-1.03544c-0.34025,0.64753 -0.80469,1.24614 -1.25043,1.82051c-0.87208,1.12372 -3.48297,3.18587 -4.93336,3.37346c-4.70158,0.60807 -6.58214,-2.33363 -6.93043,-5.90146c-0.94272,0.35308 -2.13765,0.50036 -3.18633,0.73713c-3.28234,0.74108 -7.6165,0.48434 -9.80516,-2.59414c-2.1574,-3.03451 -2.33575,-7.11702 0.89648,-9.43883c0.31346,-0.22517 0.65237,-0.4108 1.00604,-0.5694c-3.66498,-2.39757 -7.08522,-6.69513 -5.9856,-10.11728c1.18219,-3.67914 5.2734,-3.88194 8.32697,-3.05191c-0.18566,-1.36814 -0.12964,-2.74707 0.28261,-3.87061c1.38458,-3.77356 7.69133,-6.70829 11.57424,-5.30762c0.29639,0.10692 0.58413,0.22878 0.86307,0.36436z" fill="#ffc400" stroke-width="0.5"/><path d="M252.85878,52.64425c0,5.60914 -4.47716,10.15625 -10,10.15625c-5.52284,0 -10,-4.54711 -10,-10.15625c0,-5.60914 4.47716,-10.15625 10,-10.15625c5.52284,0 10,4.54711 10,10.15625z" fill="#5d4800" stroke-width="0"/><path d="M245.76759,58.02916c-0.27735,0.41602 -0.69338,0.13867 -0.69338,0.13867l-0.2462,-0.16506c-1.14124,-0.93651 -2.41305,0.11349 -3.32924,0.8783c0,0 -0.38411,0.32009 -0.7042,-0.06402c-0.32009,-0.38411 0.06401,-0.70421 0.06401,-0.70421c1.35575,-1.12769 2.91616,-2.07818 4.56942,-0.91007l0.2009,0.133c0,0 0.41603,0.27735 0.13868,0.69338z" fill="#ffffff" stroke-width="0.5"/><path d="M241.72614,49.38387c0.16831,0.20121 0.07592,0.47836 0.07592,0.47836l-0.12337,0.28898c-0.0027,1.1974 -1.95401,4.67936 -3.05574,2.18443c-0.55479,-1.25635 1.57808,-2.71048 2.36526,-3.20455c0,0 0.424,-0.265 0.689,0.159c0.02012,0.0322 0.03627,0.06347 0.04894,0.09379z" fill="#ffffff" stroke-width="0.5"/><path d="M244.81728,49.35326c0.01211,-0.02462 0.0266,-0.04981 0.04374,-0.07552c0.27735,-0.41603 0.69338,-0.13868 0.69338,-0.13868l0.36222,0.28771c0.49732,0.75409 2.24528,3.2656 0.31357,3.73983c-1.86758,0.45849 -1.89754,-2.27366 -1.90023,-3.31345c0,0 0,-0.49151 0.48732,-0.49989z" fill="#ffffff" stroke-width="0.5"/><path d="M241.25326,45.08403c0.44721,0.22361 0.22361,0.67082 0.22361,0.67082l-0.11548,0.21182c-0.32047,1.05456 -0.88724,1.52763 -1.97488,1.6989c0,0 -0.49497,0.07071 -0.56569,-0.42426c-0.07071,-0.49497 0.42426,-0.56569 0.42426,-0.56569c0.68581,-0.08369 0.98091,-0.31314 1.15478,-0.98367l0.18258,-0.38431c0,0 0.22361,-0.44721 0.67082,-0.22361z" fill="#ffffff" stroke-width="0.5"/><path d="M247.51263,46.87246c0.22361,0.44721 -0.22361,0.67082 -0.22361,0.67082l-0.30193,0.12228c-1.80884,0.25428 -1.84187,-0.67271 -3.10514,-1.49475c0,0 -0.41603,-0.27735 -0.13868,-0.69338c0.27735,-0.41603 0.69338,-0.13868 0.69338,-0.13868c1.08202,0.73471 1.0017,1.54157 2.40902,1.33685l-0.00386,-0.02675c0,0 0.44721,-0.22361 0.67082,0.22361z" fill="#ffffff" stroke-width="0.5"/></g></g></svg>