<svg viewBox="0,0,23.03087,37.50676" height="37.50676" width="23.03087" xmlns:xlink="http://www.w3.org/1999/xlink" xmlns="http://www.w3.org/2000/svg" version="1.1"><g transform="translate(-227.78388,-154.81643)"><g style="mix-blend-mode: normal" stroke-dashoffset="0" stroke-dasharray="" stroke-miterlimit="10" stroke-linejoin="miter" stroke-linecap="butt" stroke-width="0.5" stroke="none" fill-rule="nonzero" fill="#0052ff" data-paper-data="{&quot;isPaintingLayer&quot;:true}"><path d="M237.66937,155.19779c1.6641,-1.1094 2.77351,0.5547 2.77351,0.5547l0.99432,1.51932c1.63979,3.27957 3.27535,6.51685 5.31373,9.5732c1.30692,1.9596 3.29396,4.15986 3.7669,6.55822c1.17265,5.94669 -1.2674,12.2998 -4.86629,16.80523c-6.55884,5.35777 -16.53567,-0.22143 -17.76566,-8.28088c-0.91338,-5.98486 4.5374,-9.63966 7.20847,-14.11628c1.55301,-2.60279 1.91263,-5.82113 1.90183,-8.77549c0,0 0,-0.45097 0.21415,-0.92463l-0.09564,-0.13988c0,0 -1.1094,-1.6641 0.5547,-2.7735z"></path></g></g></svg>