<svg version="1.1" xmlns="http://www.w3.org/2000/svg" xmlns:xlink="http://www.w3.org/1999/xlink" width="48.67875" height="43.47032" viewBox="0,0,48.67875,43.47032"><g transform="translate(-216.9944,-31.06112)"><g data-paper-data="{&quot;isPaintingLayer&quot;:true}" fill-rule="nonzero" stroke="none" stroke-linecap="butt" stroke-linejoin="miter" stroke-miterlimit="10" stroke-dasharray="" stroke-dashoffset="0" style="mix-blend-mode: normal"><path d="M238.25035,34.70161c1.93989,-3.37438 7.57367,-5.10196 10.54444,-2.07473c0.93854,0.95637 1.44683,2.02072 1.6484,3.12711c2.15977,-1.2017 4.62532,-1.66388 7.15596,-0.55252c3.47086,1.52427 4.46631,5.57525 3.06995,8.70947c0.51888,0.01307 0.92336,0.04832 1.1034,0.11718c3.58868,1.37255 5.07024,5.14648 2.86316,8.38188c-0.33582,0.49228 -0.77415,0.9121 -1.25891,1.275c0.26607,0.27784 0.51054,0.5586 0.72963,0.83278c2.87101,3.59282 1.69437,8.66389 -2.80753,10.43522c-1.01936,0.40108 -2.15011,0.50434 -3.25562,0.48286c-0.39783,2.0368 -1.83306,4.04233 -3.29464,4.82438c-0.8386,0.44871 -4.70304,0.39819 -5.57475,0.03261c-0.62537,-0.26226 -1.2442,-0.60494 -1.78156,-1.03544c-0.34025,0.64753 -0.80469,1.24614 -1.25043,1.82051c-0.87208,1.12372 -3.48297,3.18587 -4.93336,3.37346c-4.70158,0.60807 -6.58214,-2.33363 -6.93043,-5.90146c-0.94272,0.35308 -2.13765,0.50036 -3.18633,0.73713c-3.28234,0.74108 -7.6165,0.48434 -9.80516,-2.59414c-2.1574,-3.03451 -2.33575,-7.11702 0.89648,-9.43883c0.31346,-0.22517 0.65237,-0.4108 1.00604,-0.5694c-3.66498,-2.39757 -7.08522,-6.69513 -5.9856,-10.11728c1.18219,-3.67914 5.2734,-3.88194 8.32697,-3.05191c-0.18566,-1.36814 -0.12964,-2.74707 0.28261,-3.87061c1.38458,-3.77356 7.69133,-6.70829 11.57424,-5.30762c0.29639,0.10692 0.58413,0.22878 0.86307,0.36436z" fill="#ffc400" stroke-width="0.5"/><path d="M252.85878,52.64425c0,5.60914 -4.47716,10.15625 -10,10.15625c-5.52284,0 -10,-4.54711 -10,-10.15625c0,-5.60914 4.47716,-10.15625 10,-10.15625c5.52284,0 10,4.54711 10,10.15625z" fill="#5d4800" stroke-width="0"/><path d="M242.49255,58.05181c-0.3,-0.4 0.1,-0.7 0.1,-0.7l0.13849,-0.0205c0.05238,-0.04682 0.02858,-0.1997 -0.04133,-0.20669c0,0 -0.41602,-0.27735 -0.13867,-0.69337c0.27735,-0.41602 0.69337,-0.13867 0.69337,-0.13867c0.37247,0.32805 0.54071,0.95501 0.40577,1.43266l-0.45764,0.42659c0,0 -0.4,0.3 -0.7,-0.1z" fill="#ffffff" stroke-width="0.5"/><path d="M241.23159,52.0141c0,0.5 -0.5,0.5 -0.5,0.5l-0.19579,-0.01493c-1.15911,-0.29813 -2.4029,-0.08601 -3.52092,0.28733c0,0 -0.47434,0.15812 -0.63246,-0.31622c-0.15812,-0.47434 0.31623,-0.63246 0.31623,-0.63246c1.30917,-0.43565 2.72367,-0.63981 4.07967,-0.30879l-0.04675,-0.01493c0,0 0.5,0 0.5,0.5z" fill="#ffffff" stroke-width="0.5"/><path d="M250.53112,53.32762c-0.12127,0.48507 -0.60634,0.3638 -0.60634,0.3638l-0.30836,-0.0772c-1.20881,-0.3297 -2.48443,-0.80854 -3.74326,-0.80206c0,0 -0.5,0 -0.5,-0.5c0,-0.5 0.5,-0.5 0.5,-0.5c1.35907,0.00579 2.70189,0.48154 4.00637,0.83729l0.28778,0.07182c0,0 0.48507,0.12127 0.3638,0.60634z" fill="#ffffff" stroke-width="0.5"/><path d="M253.7814,47.67225c-0.20361,0.45667 -0.66027,0.25306 -0.66027,0.25306l-0.21844,-0.11833c-1.00579,-0.14374 -1.85993,-0.27725 -2.72644,-0.5611l-0.02793,0.11171l-0.88404,-0.22102c-0.22266,-0.05053 -0.38888,-0.24966 -0.38888,-0.48761c0,-0.1996 0.11695,-0.37189 0.28608,-0.45206l0.57995,-0.28997c0.49823,-0.27382 0.97692,-0.56014 1.48802,-0.78805c-0.81946,-0.04888 -1.62907,-0.05636 -2.45017,-0.05636c0,0 -0.5,0 -0.5,-0.5c0,-0.5 0.5,-0.5 0.5,-0.5c0.87175,0 1.73076,0.00962 2.60145,0.06387l0.00722,0.00214l0.00014,-0.00151l0.93421,0.08618c0.25707,0.02076 0.45921,0.23595 0.45921,0.49836c0,0.13014 -0.04972,0.24867 -0.1312,0.33762l-0.6715,0.73865l-0.10778,-0.09798c-0.29618,0.29532 -0.60887,0.5062 -1.03917,0.75407c0.73518,0.024 1.53404,0.27625 2.21225,0.3731l0.48422,0.19495c0,0 0.45667,0.2036 0.25306,0.66027z" fill="#ffffff" stroke-width="0.5"/><path d="M259.90524,45.25411c-0.16996,0.47022 -0.6402,0.30026 -0.6402,0.30026l-0.50365,-0.18254c-0.64105,-0.17099 -1.04506,-0.3044 -1.44705,-0.49565l-0.01995,0.05414l-0.9274,-0.34168c-0.19668,-0.06728 -0.33809,-0.25373 -0.33809,-0.47321c0,-0.21027 0.12979,-0.39022 0.31363,-0.46411l0.51102,-0.21901l0,0.00002c2.1003,-0.89467 -1.04156,-0.47414 -2.3144,-0.60802c0,0 -0.49725,-0.05234 -0.44491,-0.5496c0.05234,-0.49726 0.5496,-0.44491 0.5496,-0.44491c1.58954,0.16743 6.02583,0.65831 3.14833,2.24842c0.39393,0.05264 0.74739,0.2005 1.2683,0.33937l0.54451,0.19632c0,0 0.47022,0.16996 0.30026,0.64019z" fill="#ffffff" stroke-width="0.5"/><path d="M259.0259,39.54222c-0.12127,0.48507 -0.60634,0.3638 -0.60634,0.3638l-0.21579,-0.06111c-1.07083,-0.08377 -1.88386,-0.15481 -2.73575,-0.42147l-0.03669,0.13942l-0.95672,-0.25177c-0.21975,-0.05264 -0.3831,-0.25037 -0.3831,-0.48626c0,-0.23012 0.15546,-0.42393 0.36709,-0.48214l0.70948,-0.21284c2.44766,-1.12491 3.61263,-1.13583 0.24691,-1.56712c0,0 -0.49497,-0.07071 -0.42426,-0.56569c0.07071,-0.49497 0.56569,-0.42426 0.56569,-0.42426c0.58059,0.08925 3.26907,0.78247 3.39723,1.27725c0.18184,0.70203 -1.25867,1.36544 -2.35922,1.79923c0.56649,0.04341 1.14439,0.15623 1.68736,0.19871l0.38033,0.08792c0,0 0.48507,0.12127 0.3638,0.60634z" fill="#ffffff" stroke-width="0.5"/></g></g></svg>