<svg version="1.1" xmlns="http://www.w3.org/2000/svg" xmlns:xlink="http://www.w3.org/1999/xlink" width="58.93412" height="43.47032" viewBox="0,0,58.93412,43.47032"><g transform="translate(-216.9944,-31.06112)"><g data-paper-data="{&quot;isPaintingLayer&quot;:true}" fill-rule="nonzero" stroke="none" stroke-linecap="butt" stroke-linejoin="miter" stroke-miterlimit="10" stroke-dasharray="" stroke-dashoffset="0" style="mix-blend-mode: normal"><path d="M254.67254,34.70162c0.27894,-0.13558 0.56668,-0.25744 0.86307,-0.36436c3.88291,-1.40067 10.18966,1.53406 11.57424,5.30762c0.41225,1.12354 0.46827,2.50247 0.28261,3.87061c3.05357,-0.83003 7.14478,-0.62723 8.32697,3.05191c1.09962,3.42215 -2.32062,7.71971 -5.9856,10.11728c0.35367,0.1586 0.69258,0.34423 1.00604,0.5694c3.23223,2.32181 3.05388,6.40432 0.89648,9.43883c-2.18866,3.07848 -6.52282,3.33522 -9.80516,2.59414c-1.04868,-0.23677 -2.24361,-0.38405 -3.18633,-0.73713c-0.34829,3.56783 -2.22885,6.50953 -6.93043,5.90146c-1.45039,-0.18759 -4.06128,-2.24974 -4.93336,-3.37346c-0.44574,-0.57437 -0.91018,-1.17298 -1.25043,-1.82051c-0.53736,0.4305 -1.15619,0.77318 -1.78156,1.03544c-0.87171,0.36558 -4.73615,0.4161 -5.57475,-0.03261c-1.46158,-0.78205 -2.89681,-2.78758 -3.29464,-4.82438c-1.10551,0.02148 -2.23626,-0.08178 -3.25562,-0.48286c-4.5019,-1.77133 -5.67854,-6.8424 -2.80753,-10.43522c0.21909,-0.27418 0.46356,-0.55494 0.72963,-0.83278c-0.48476,-0.3629 -0.92309,-0.78272 -1.25891,-1.275c-2.20708,-3.2354 -0.72552,-7.00933 2.86316,-8.38188c0.18004,-0.06886 0.58452,-0.10411 1.1034,-0.11718c-1.39636,-3.13422 -0.40091,-7.1852 3.06995,-8.70947c2.53064,-1.11136 4.99619,-0.64918 7.15596,0.55252c0.20157,-1.10639 0.70986,-2.17074 1.6484,-3.12711c2.97077,-3.02723 8.60455,-1.29965 10.54444,2.07473z" data-paper-data="{&quot;index&quot;:null}" fill="#ffc400" stroke-width="0.5"/><path d="M250.06414,42.488c5.52284,0 10,4.54711 10,10.15625c0,5.60914 -4.47716,10.15625 -10,10.15625c-5.52284,0 -10,-4.54711 -10,-10.15625c0,-5.60914 4.47716,-10.15625 10,-10.15625z" data-paper-data="{&quot;index&quot;:null}" fill="#5d4800" stroke-width="0"/><path d="M251.7773,46.56438c-0.15811,-0.47435 0.31623,-0.63246 0.31623,-0.63246l0.62686,-0.18191c1.13515,0 1.65349,0.25195 2.6857,0.66076c0,0 0.46424,0.18569 0.27854,0.64993c-0.18569,0.46424 -0.64993,0.27854 -0.64993,0.27854c-0.98573,-0.39774 -1.26725,-0.58924 -2.3143,-0.58924l-0.31064,0.13059c0,0 -0.47435,0.15811 -0.63246,-0.31623z" data-paper-data="{&quot;index&quot;:null}" fill="#ffffff" stroke-width="0.5"/><path d="M245.06414,45.28125h0.3125c0.94026,0 1.70876,0.0993 2.62127,0.32743c0,0 0.48507,0.12127 0.3638,0.60634c-0.12127,0.48507 -0.60634,0.3638 -0.60634,0.3638c-0.83973,-0.20993 -1.51375,-0.29757 -2.37873,-0.29757h-0.3125c0,0 -0.5,0 -0.5,-0.5c0,-0.5 0.5,-0.5 0.5,-0.5z" data-paper-data="{&quot;index&quot;:null}" fill="#ffffff" stroke-width="0.5"/><path d="M252.6759,52.06227c-0.9665,0 -1.75,-0.7835 -1.75,-1.75c0,-0.9665 0.7835,-1.75 1.75,-1.75c0.9665,0 1.75,0.7835 1.75,1.75c0,0.9665 -0.7835,1.75 -1.75,1.75z" data-paper-data="{&quot;index&quot;:null}" fill="#ffffff" stroke-width="0.5"/><path d="M246.77636,52.37277c-0.9665,0 -1.75,-0.7835 -1.75,-1.75c0,-0.9665 0.7835,-1.75 1.75,-1.75c0.9665,0 1.75,0.7835 1.75,1.75c0,0.9665 -0.7835,1.75 -1.75,1.75z" data-paper-data="{&quot;index&quot;:null}" fill="#ffffff" stroke-width="0.5"/><path d="M247.62596,54.87929c0.71151,-0.23717 0.94868,0.47434 0.94868,0.47434l0.1401,0.42438c0.66807,1.71363 2.1505,3.5174 3.10957,0.77626c0,0 0.27854,-0.69635 0.9749,-0.41781c0.69635,0.27854 0.41781,0.9749 0.41781,0.9749c-1.64152,3.80465 -4.65919,2.25223 -5.895,-0.77626l-0.17041,-0.50713c0,0 -0.23717,-0.71151 0.47434,-0.94868z" data-paper-data="{&quot;index&quot;:null}" fill="#ffffff" stroke-width="0.5"/><path d="M217.7444,60.53259c-0.41421,0 -0.75,-0.33579 -0.75,-0.75c0,-0.41421 0.33579,-0.75 0.75,-0.75c0.41421,0 0.75,0.33579 0.75,0.75c0,0.41421 -0.33579,0.75 -0.75,0.75z" data-paper-data="{&quot;index&quot;:null}" fill="#ffffff" stroke-width="0.5"/></g></g></svg>