<svg version="1.1" xmlns="http://www.w3.org/2000/svg" xmlns:xlink="http://www.w3.org/1999/xlink" width="61.66" height="139.60354" viewBox="0,0,61.66,139.60354"><g transform="translate(-207.79694,-44.73333)"><g data-paper-data="{&quot;isPaintingLayer&quot;:true}" fill-rule="nonzero" stroke-width="0.5" stroke-linecap="butt" stroke-linejoin="miter" stroke-miterlimit="10" stroke-dasharray="" stroke-dashoffset="0" style="mix-blend-mode: normal"><path d="M228.28408,165.89378c-1.55203,-0.08454 -3.30955,0.32845 -4.63847,-0.47772c-2.64693,-1.60573 -2.09868,-5.01433 -0.54883,-6.92869c1.077,-1.33028 4.2254,-1.94392 5.74178,-2.05862c1.76609,-0.1336 3.28781,-0.0121 4.66352,0.3118c0.65741,0.23279 1.31179,0.46444 1.99389,0.64237c0.02692,0.01108 0.0538,0.02225 0.08062,0.03349c0.13414,0.09462 0.28773,0.1635 0.4536,0.19946c1.12638,0.51862 2.1837,1.17885 3.24797,1.93992c0.09914,-0.00257 0.19892,-0.00433 0.29937,-0.00529l1.38316,0.56829c2.43714,-2.62145 5.14036,-4.14816 9.5622,-3.51121c3.52365,0.50756 10.24721,3.11225 8.04267,8.15735c-0.48449,1.10876 -1.86688,1.58667 -2.96587,2.09293c-4.12153,1.89864 -9.35607,-0.29474 -13.54348,-0.96697c-0.02563,0.00559 -0.05118,0.01051 -0.07661,0.01481c-0.49887,0.97839 -2.143,3.33319 -1.49907,4.54967c0.31576,0.59653 1.09939,0.87128 1.37291,1.48831c0.72351,1.63214 0.65301,3.60278 0.42897,5.4346c0.73737,0.06156 1.46636,0.22675 2.12982,0.5258c0.57235,0.25798 0.52792,1.24719 1.08266,1.54114c1.06684,0.56529 1.4369,-2.33785 2.63527,-2.48488c2.95169,-0.36217 4.91328,2.33765 7.28548,3.39925l-0.36937,-0.18408c0,0 2,0 2,2c0,2 -2,2 -2,2l-1.30686,-0.18408c-0.76451,-0.36112 -1.58324,-0.62472 -2.29355,-1.08336c-0.86753,-0.56016 -1.33596,-2.46035 -2.29597,-2.07989c-0.42122,0.16693 -0.17164,1.01571 -0.56823,1.23483c-1.22093,0.67457 -2.59635,1.42215 -3.984,1.28029c-0.92418,-0.09448 -1.25229,-1.40764 -2.04234,-1.89635c-1.59506,-0.98668 -4.34977,2.00927 -5.53836,1.91222c-0.77706,-0.06346 -0.75556,-1.49542 -1.46167,-1.82597c-0.37562,-0.17584 -0.69955,0.44723 -1.06511,0.6431c-1.39351,0.7466 -2.8407,1.39277 -4.29966,2.00164c0,0 -1.84615,0.76923 -2.61538,-1.07693c-0.76923,-1.84616 1.07692,-2.61539 1.07692,-2.61539c2.48814,-1.03496 5.51596,-3.28623 8.38522,-2.66776c0.57592,0.12414 0.20101,1.34383 0.72583,1.61152c0.30603,0.15609 0.11367,-0.69671 0.3302,-0.98479c0.21356,-1.26587 0.76205,-3.62034 0.14581,-4.78725c-0.80596,-1.52616 -1.91771,-3.16129 -1.7369,-4.8777c0.12652,-1.20111 1.04587,-2.98078 1.68481,-4.23703c-0.04776,-0.34156 0.01469,-0.66281 0.10451,-0.92233c-3.45846,0.41127 -6.31169,2.47484 -10.00745,2.27352z" fill="#008c01" stroke="none"/><path d="M258.20252,162.1755c0,0.5 -0.5,0.5 -0.5,0.5l-0.25344,-0.00953c-4.36164,-0.86437 -7.46436,-1.187 -11.836,-0.31268c0,0 -0.49029,0.09806 -0.58835,-0.39223c-0.09806,-0.49029 0.39223,-0.58835 0.39223,-0.58835c4.49113,-0.89822 7.74767,-0.5751 12.2265,0.31233l0.05906,-0.00954c0,0 0.5,0 0.5,0.5z" fill="#004200" stroke="none"/><path d="M223.29628,162.01925c0,-0.5 0.5,-0.5 0.5,-0.5l-0.1211,0.08397c3.48342,-2.30035 8.8458,-1.95873 12.74237,-1.00655c0,0 0.48507,0.12127 0.3638,0.60634c-0.12127,0.48507 -0.60634,0.3638 -0.60634,0.3638c-3.54353,-0.91011 -8.77809,-1.26703 -11.94513,0.86845l-0.4336,0.08397c0,0 -0.5,0 -0.5,-0.5z" fill="#004200" stroke="none"/><path d="M254.45253,158.26925c0,-0.05963 0.00261,-0.11866 0.00772,-0.17697c-0.26131,0.05227 -0.51657,0.1037 -0.75304,0.1332c-2.31192,0.28843 -4.0526,1.0062 -6.17296,1.88993c0,0 -1.84615,0.76923 -2.61538,-1.07693c-0.76923,-1.84616 1.07692,-2.61539 1.07692,-2.61539c3.14671,-1.31079 6.93718,-2.96294 10.45143,-2.31761c4.98269,0.91499 7.5075,8.84525 3.58851,12.2959c-2.96382,2.60964 -8.56816,2.09867 -12.00167,1.31665l-1.91035,-0.47725c0,0 -1.94028,-0.48507 -1.45521,-2.42535c0.48507,-1.94028 2.42535,-1.45521 2.42535,-1.45521l1.83965,0.46025c2.63501,0.61733 4.75707,0.62446 7.37615,-0.11165c0.30926,-0.08692 1.7152,-0.39978 1.79561,-1.07792c0.10583,-0.89258 -0.36993,-1.74376 -0.70991,-2.59737c-0.28089,0.15043 -0.6019,0.23573 -0.94281,0.23573c-1.10457,0 -2,-0.89543 -2,-2z" fill="#008c01" stroke="none"/><path d="M237.31439,160.40706c-0.13447,0.62751 -0.42714,1.01052 -0.76264,1.24132c0.09745,0.15818 0.18236,0.34461 0.24984,0.56395c0.58817,1.91156 -1.32339,2.49973 -1.32339,2.49973l-2.17209,0.66277c-4.34814,0.67959 -9.40004,1.87155 -13.71017,0.26896c-3.69725,-1.37471 -5.40715,-4.92862 -2.57119,-8.27373c2.74409,-3.23674 7.46142,-2.88915 11.75837,-2.37202c0.26574,0.43119 0.77801,0.5709 0.77801,0.5709l1.7316,0.47218c1.48626,0.36547 2.80738,0.98439 4.25679,1.35564c0.16003,0.1194 0.34962,0.20138 0.5558,0.23298c-0.00878,0.1769 -0.03398,0.33695 -0.07239,0.48177c0.51524,0.19294 1.60466,0.78721 1.28145,2.29553zM230.95275,160.72188c0,0 -1.1602,-0.51565 -1.22098,-1.64965c-1.82446,-0.25422 -3.66343,-0.51351 -5.46725,-0.4166c-0.23073,0.61859 -0.75889,1.09225 -1.41056,1.24704c0.08389,0.22073 0.12982,0.46017 0.12982,0.71033c0,0.56664 -0.23565,1.07825 -0.61429,1.44216c0.05647,0.00479 0.10639,0.00986 0.14853,0.01564c3.43439,0.47118 6.48691,-0.08025 9.89343,-0.59463l0.19739,-0.06132z" fill="#008c01" stroke="none"/><path d="M219.28778,158.70425c-1.06,-1.696 0.636,-2.75599 0.636,-2.75599l1.63733,-0.96874c6.13794,-2.11619 11.27066,0.41357 16.22402,4.01601c0,0 1.61747,1.17634 0.44113,2.79382c-1.17634,1.61747 -2.79382,0.44113 -2.79382,0.44113c-3.75438,-2.73046 -7.81576,-5.24528 -12.52598,-3.48399l-0.86267,0.59376c0,0 -1.696,1.06 -2.75599,-0.636z" fill="#008c01" stroke="none"/><path d="M235.36437,160.77111c-0.15811,0.47434 -0.63246,0.31623 -0.63246,0.31623l-0.31064,-0.13059c-1.51042,0 -3.02083,0 -4.53125,0c0,0 -0.5,0 -0.5,-0.5c0,-0.5 0.5,-0.5 0.5,-0.5c1.51042,0 3.02083,0 4.53125,0l0.62686,0.18191c0,0 0.47434,0.15811 0.31623,0.63246z" fill="#004200" stroke="none"/><path d="M252.68099,133.18036c-0.22361,0.44721 -0.67082,0.22361 -0.67082,0.22361l-0.08889,-0.10346c-2.8098,0 -5.92489,-0.31077 -8.59189,0.59934c0,0 -0.47434,0.15811 -0.63246,-0.31623c-0.15811,-0.47434 0.31623,-0.63246 0.31623,-0.63246c2.80916,-0.91756 5.96235,-0.65066 8.90811,-0.65066l0.53611,0.20904c0,0 0.44721,0.22361 0.22361,0.67082z" fill="#004200" stroke="none"/><path d="M226.63032,131.77411c-0.22361,-0.44721 0.22361,-0.67082 0.22361,-0.67082l0.25876,-0.12506c2.37998,-1.48458 6.73772,0.5996 9.2658,1.01658c0,0 0.4932,0.0822 0.411,0.5754c-0.0822,0.4932 -0.5754,0.411 -0.5754,0.411c-1.93022,-0.32478 -6.80619,-2.46471 -8.5467,-1.17092l-0.36624,0.18744c0,0 -0.44721,0.22361 -0.67082,-0.22361z" fill="#004200" stroke="none"/><path d="M254.59385,164.61022l0.13993,0.09653c1.08227,0.01381 2.58196,0.69272 3.2429,-0.1644c0.44299,-0.57449 -0.07684,-1.7416 0.55072,-2.1055c0.24293,-0.14086 0.49633,-0.25471 0.75759,-0.3483l-0.07682,-0.16647l1.99261,-0.91966c0.07102,-0.03469 0.1444,-0.06531 0.21984,-0.09153c-0.78796,-0.77749 -1.84132,-1.48861 -2.76124,-2.0555c-4.00733,0.41846 -8.05498,1.42117 -11.44559,3.60119c0,0 -1.34939,0.85871 -2.40264,-0.16644l-0.10011,0.16412c0,0 -0.42973,0.68756 -1.17974,0.91351c0.03116,0.00831 0.06203,0.01734 0.09258,0.02709l2.61175,0.76816l-0.00114,0.00387c0.00575,0.00031 0.01151,0.00064 0.01727,0.00096c1.94005,0.10857 3.93733,0.92794 5.96312,1.73298c0.55089,-1.74763 2.37899,-1.29061 2.37899,-1.29061zM241.95503,163.09025c-1.696,-1.06 -0.63599,-2.75599 -0.63599,-2.75599l0.9155,-1.4394c3.26697,-4.03025 7.62497,-6.18132 12.29461,-8.1826c3.29692,-0.37604 5.97996,-0.65662 8.92269,1.17463c1.90256,1.18396 4.94262,3.36064 5.6839,5.60763c0.36753,1.11406 0.39179,2.40643 0.15543,3.74403c0.46288,3.0038 -0.05235,6.27845 -1.43624,8.12769c-3.04419,4.06784 -9.91101,3.8736 -14.28879,3.328c-3.02507,-1.36709 -5.81993,-2.93989 -8.91465,-4.18351l-0.09194,-0.10537l-0.02506,0.04455l-2.4656,-1.3869c-0.62739,-0.33749 -1.05387,-1.00019 -1.05387,-1.7625c0,-0.93826 0.64609,-1.72562 1.51764,-1.94144c-0.18306,-0.05559 -0.37586,-0.14269 -0.57764,-0.26881zM252.92423,155.79693c1.18943,-0.30104 2.39752,-0.53619 3.61217,-0.71397c0.19484,-0.28927 0.41069,-0.48949 0.63274,-0.62394c-0.48797,0.01379 -1.01786,0.05442 -1.60574,0.11721c-0.88636,0.39759 -1.77067,0.79794 -2.63917,1.22069zM259.74312,154.74167c-0.10701,-0.03161 -0.21476,-0.06042 -0.3236,-0.08651c0.05331,0.03227 0.10708,0.06492 0.16126,0.09795c0.05412,-0.00392 0.10823,-0.00772 0.16234,-0.01144z" fill="#008c01" stroke="none"/><path d="M219.17889,158.22618c-0.59376,1.18752 -1.58168,1.19254 -2.17878,1.06173c-0.40042,0.14084 -0.70678,0.29269 -0.93159,0.45345l0.04267,0.1024l-0.07002,0.02917c0.0283,0.44419 -0.06181,1.00027 0.3118,1.11818c0.39777,0.12554 0.32827,-0.87451 0.71711,-1.02549c0.80782,-0.31366 1.72153,-0.21279 2.58695,-0.25741c3.85677,-0.19885 7.77958,0.08872 11.62401,0.41809c-0.58338,-0.45613 -1.18005,-0.8652 -1.80553,-1.15643c-2.89612,-1.34844 -6.74382,-1.2819 -10.11215,-1.22316c-0.04037,0.15196 -0.10063,0.31178 -0.18447,0.47946zM220.77579,163.69604c0.11354,0.25107 0.17674,0.52976 0.17674,0.82322c0,0.3766 -0.10409,0.72889 -0.28507,1.02966c0.24182,-0.01328 0.47977,-0.02952 0.7124,-0.04776c2.21042,-0.34014 4.46493,-0.90301 6.69693,-1.59369c-2.43058,-0.14712 -4.86248,-0.22312 -7.30101,-0.21142zM237.55072,160.32265c0.55686,-0.07317 1.25682,0.06107 1.81591,0.89971c1.1094,1.6641 -0.5547,2.7735 -0.5547,2.7735l-0.80892,0.49456c-5.08411,2.11189 -10.72553,4.14772 -16.16531,4.98445c-2.72465,0.20623 -5.91073,0.50109 -8.4463,-0.81275c-4.27025,-2.2127 -8.02797,-9.40784 -3.62117,-13.56888c1.90603,-1.79974 5.27473,-1.31561 7.46355,-1.32397c4.46507,-0.01705 9.8438,-0.31791 14.00827,1.61186c1.99066,0.92245 3.63977,2.83325 5.50298,4.01332c0,0 0.52846,0.33629 0.80568,0.92821z" fill="#008c01" stroke="none"/><path d="M216.83776,125.30521c2.62374,-1.01656 4.74914,-1.20533 6.90879,-0.84329c0.23113,-0.0132 0.45659,-0.02639 0.67473,-0.04043v-0.18349h2.65625c0.44134,0 0.84928,0.14295 1.18007,0.38508c0.63063,0.03011 1.24934,0.09066 1.85802,0.17986l0.86531,0.06595c0,0 0.43815,0.0337 0.88789,0.2749c2.78584,0.67573 5.3896,1.949 8.00899,3.63061c0,0 0.51105,0.32853 0.78875,0.90512c0.28269,-0.32615 0.58671,-0.49717 0.58671,-0.49717c5.21589,-2.92728 10.57756,-4.6037 16.54447,-5.24501c0.56393,-0.06061 5.28891,-0.36619 5.98267,-0.01585c4.49298,2.26892 4.12543,8.44215 0.87475,11.46857c-0.58858,0.54798 -1.23825,0.99181 -1.93275,1.345c-3.59103,3.7212 -9.23158,3.55778 -14.21482,3.2173c-0.43645,-0.02982 -4.36084,-0.51858 -4.85417,-0.87267c-0.04686,-0.03364 -0.09317,-0.06792 -0.13895,-0.1028l-0.01865,0.04477l-1.83222,-0.76343c-0.63629,-0.24817 -1.11428,-0.81274 -1.24058,-1.50035c-3.92358,2.01845 -7.94965,2.79242 -12.38461,3.34704c-4.27864,0.23831 -10.09648,1.07859 -13.99942,-1.04536c-3.82696,-2.0826 -3.89957,-7.39592 -1.33305,-10.34833c0.84825,-1.474 2.3356,-2.71008 4.13183,-3.40602zM221.82717,131.32797l-2.65796,0.55957c-0.30245,0.40927 -0.42838,0.88121 0.27993,0.95893c0.80127,0.08793 4.64415,-0.56537 4.98796,-0.61759c0,0 1.97787,-0.29669 2.27455,1.68119c0.29668,1.97788 -1.68119,2.27456 -1.68119,2.27456c-0.12057,0.01788 -0.25465,0.03893 -0.40019,0.06226c1.01689,-0.02517 2.03345,-0.06956 3.0489,-0.12581c3.61314,-0.45141 6.9365,-1.02942 10.14221,-2.53351c-0.273,-0.10072 -0.447,-0.21672 -0.447,-0.21672c-4.13004,-2.78924 -8.80782,-3.57529 -13.73435,-3.57035c-0.0771,0.00008 -0.15547,-0.00073 -0.23498,-0.0023c-0.17203,0.77527 -0.79403,1.38123 -1.57788,1.52977zM240.43474,132.24315c0.07752,-0.01901 0.15938,-0.03492 0.24456,-0.04596c-0.05868,-0.07841 -0.11551,-0.1644 -0.17007,-0.25859c-0.01523,0.09848 -0.03958,0.20005 -0.07449,0.30455zM242.49163,133.09735c0.06887,0.10332 0.12706,0.20449 0.17562,0.30339c0.22375,-0.29413 0.51165,-0.46993 0.79263,-0.57407c0.54015,-0.93242 1.74265,-0.93242 1.74265,-0.93242l0.77839,0.00589c1.07738,0.08513 2.15091,0.23053 3.21598,0.42065c-0.06067,-0.37807 -0.07082,-0.74129 0.0844,-1.03986c0.38306,-0.73685 0.90928,-1.35366 1.52905,-1.85663c-2.61226,0.7664 -5.06838,1.81905 -7.59605,3.24435c0,0 -0.35977,0.20237 -0.84437,0.25979c0.04121,0.05283 0.08181,0.10908 0.1217,0.1689zM255.9945,132.78867l1.0153,-1.26911c-0.31155,0.02025 -0.63822,0.04782 -0.96503,0.08437l-0.66966,0.1681c0,0 -0.2975,0.07438 -0.68864,0.04839c-0.88786,0.19625 -1.58465,0.49395 -1.6877,0.93715c-0.04217,0.18135 -0.07402,0.36851 -0.09923,0.55941c0.8659,0.22737 1.76077,0.40834 2.65935,0.50778c0.04386,-0.3904 0.2001,-0.7468 0.43562,-1.03609z" fill="#008c01" stroke="none"/><path d="M241.92128,66.738c2,0 2,2 2,2l-0.00508,0.61124c-0.248,2.8713 -1.88662,4.91283 -2.16058,7.62298l0.4038,0.93986c2.17798,3.14618 5.2661,6.70008 3.83398,10.87041c-0.60261,1.75482 -2.48403,2.77013 -3.5381,4.29704c-0.47905,0.69395 0.4167,2.58455 0.4845,2.89761c0.29137,1.34526 0.41686,2.71632 0.47107,4.09132c1.15974,-1.09846 2.34432,-2.1621 3.60582,-2.90722c2.43168,-1.43629 6.47333,-2.3482 9.23988,-1.78293c4.79273,0.97927 7.24892,6.34031 5.07871,10.72003c-1.11707,2.25438 -4.20314,3.04409 -6.32411,3.37033c-4.47189,0.68785 -6.2622,-1.27159 -10.09248,-2.41539c-0.49759,-0.14859 -1.00056,-0.2872 -1.50216,-0.43056c-0.01174,0.02667 -0.01889,0.04097 -0.01889,0.04097l-0.25779,0.49182c-1.65776,2.3964 -0.2121,4.03775 -0.31338,6.80387c-0.08261,2.25602 -1.39675,4.30947 -1.40523,6.50943c-0.00878,2.28012 1.54189,4.26753 1.7139,6.56703c0.00207,0.02773 0.00384,0.05646 0.0053,0.08615c3.35792,-0.8534 7.11632,-2.76845 10.60345,-1.34019c4.24745,1.73967 5.15954,7.66156 2.05182,10.81537c-2.89113,2.934 -9.01995,1.75387 -12.35961,0.58683l-0.10236,-0.0341c-0.98729,-0.21282 -1.92187,-0.45961 -2.74802,-0.69644c-1.16155,2.13582 -2.4976,4.52042 -1.63618,6.89309c1.11329,3.06643 5.14383,2.57367 6.1237,6.02298c0.33958,1.19537 0.31836,2.5421 -0.0542,3.7276c-0.24734,0.78704 -1.2408,1.11716 -1.68652,1.81139c-0.81491,1.26925 -0.19346,3.85462 -0.19249,5.23575c0,0 0,2 -2,2c-2,0 -2,-2 -2,-2c0.00191,-2.53404 -0.5455,-4.87438 0.745,-7.26425c0.68382,-1.26636 1.96435,-0.79528 1.38428,-2.2735c-0.44611,-1.13686 -1.36483,-0.94982 -2.31773,-1.60093c-1.60466,-1.09645 -3.03253,-2.37823 -3.74607,-4.25109c-1.17846,-3.09315 -0.16487,-5.88391 1.12066,-8.58415c-0.20399,0.03641 -0.34239,0.03641 -0.34239,0.03641l-0.00001,-0.00001h-0.42168c-2.59762,0.71966 -5.32356,1.18245 -7.85589,0.27572c-1.50764,-0.02135 -3.01279,-0.18872 -4.52156,-0.68404c-1.56656,-0.5143 -4.29814,-1.68226 -4.74807,-3.53928c-0.6633,-2.73768 1.46726,-4.96492 3.53293,-6.09382c4.38682,-2.39745 10.43053,0.20533 14.71997,1.43088c0,0 0.53017,0.15148 0.95423,0.57373c0.49271,0.29255 0.92967,0.61828 1.35313,0.96754c0.09425,-0.77967 0.168,-1.52334 0.14809,-1.8223c-0.16293,-2.44612 -1.71723,-4.31729 -1.7236,-6.87047c-0.00578,-2.31675 1.32077,-4.3172 1.40727,-6.61557c0.09937,-2.64026 -0.55909,-4.2842 -0.11038,-6.3241c-5.20611,2.07237 -11.03188,2.89027 -16.4702,1.46188c-3.51054,-0.92204 -7.69271,-2.81809 -5.92692,-7.39464c1.13754,-2.94826 4.62429,-4.76432 7.52973,-5.13007c4.94925,-0.62304 10.75802,-0.06908 15.13715,2.60548c-0.27828,-1.58733 -0.58569,-3.15584 -0.62525,-4.71537c-0.0987,-3.8917 2.61899,-3.89124 3.86144,-6.88881c0.96515,-2.32855 -2.19206,-5.57705 -3.35352,-7.25459l-0.9576,-2.02956c0,0 -0.27414,-0.60311 -0.15975,-1.27288c0.31512,-2.90555 2.02968,-4.959 2.17307,-7.82222l-0.00508,-0.32626c0,0 0,-2 2,-2z" fill="#008c01" stroke="none"/><path d="M216.63032,132.71161c-0.2236,-0.44721 0.2236,-0.67082 0.2236,-0.67082l0.41484,-0.19411c4.15147,-1.01447 8.31936,-1.57743 12.62127,-1.57743c0,0 0.5,0 0.5,0.5c0,0.5 -0.5,0.5 -0.5,0.5c-4.2004,0 -8.33176,0.50816 -12.37874,1.54757l-0.21016,0.11839c0,0 -0.44721,0.22361 -0.67082,-0.2236z" fill="#004200" stroke="none"/><path d="M263.14973,131.17062c0.22364,0.4472 -0.22356,0.67083 -0.22356,0.67083l-0.31667,0.15836c-1.4893,0.75092 -3.06267,1.90782 -4.61002,2.37424c-3.31313,0.99868 -7.73427,0.06494 -11.1961,0.33123c0,0 -0.49852,0.03835 -0.53687,-0.46018c-0.03835,-0.49853 0.46018,-0.53688 0.46018,-0.53688c3.4101,-0.26232 7.7166,0.63747 10.9914,-0.29377c1.46161,-0.41564 3.03231,-1.59718 4.44119,-2.30757l0.31963,-0.15984c0,0 0.4472,-0.22363 0.67083,0.22357z" fill="#004200" stroke="none"/><path d="M211.91569,160.61487c-0.15812,-0.47434 0.31623,-0.63246 0.31623,-0.63246l0.50263,-0.16623c1.88342,-0.48083 3.79389,-0.7948 5.68814,-1.26193c5.71377,-0.02286 11.24612,0.2531 16.63822,2.21386c0,0 0.4699,0.17087 0.29903,0.64077c-0.17087,0.4699 -0.64077,0.29903 -0.64077,0.29903c-5.25772,-1.9119 -10.60658,-2.13552 -16.17429,-2.16115c-1.8487,0.469 -3.72122,0.76345 -5.56185,1.23807l-0.43488,0.14628c0,0 -0.47434,0.15811 -0.63246,-0.31623z" fill="#004200" stroke="none"/><path d="M267.55187,161.70862c-0.15812,0.47434 -0.63245,0.31623 -0.63245,0.31623l-0.38043,-0.13549c-1.48699,-0.20961 -2.96943,-0.44597 -4.4678,-0.55109c-2.83789,-0.20075 -5.56362,0.32205 -8.39039,0.55432c-2.53025,0.20791 -5.62377,-0.05624 -8.00765,0.75726c0,0 -0.47434,0.15811 -0.63246,-0.31623c-0.15812,-0.47434 0.31623,-0.63246 0.31623,-0.63246c2.49776,-0.81585 5.60762,-0.58856 8.24235,-0.80524c2.87948,-0.23681 5.64956,-0.758 8.54217,-0.55518c1.52172,0.10756 3.02695,0.34553 4.53713,0.55841l0.55707,0.17701c0,0 0.47434,0.15812 0.31623,0.63246z" fill="#004200" stroke="none"/><path d="M258.89981,103.07785c-0.27735,0.41603 -0.69338,0.13868 -0.69338,0.13868l-0.3915,-0.27031c-3.93744,-0.91833 -8.0667,0.13075 -12.02239,1.12061c0,0 -0.48506,0.12127 -0.60634,-0.3638c-0.12127,-0.48507 0.3638,-0.60634 0.3638,-0.60634c4.20208,-1.04956 8.47919,-2.0968 12.66512,-1.0669l0.546,0.35469c0,0 0.41603,0.27735 0.13868,0.69338z" fill="#004200" stroke="none"/><path d="M221.45704,101.98981c0.1857,-0.46424 0.64993,-0.27854 0.64993,-0.27854l0.73028,0.29523c1.60136,0.26618 3.11883,1.16443 4.66172,1.39383c2.98363,0.44362 6.13789,-0.62035 9.1098,-0.63107c0,0 0.5,0 0.5,0.5c0,0.5 -0.5,0.5 -0.5,0.5c-3.01507,-0.01274 -6.23651,1.11625 -9.2652,0.61893c-1.60104,-0.2629 -3.12091,-1.14214 -4.77578,-1.41867l-0.83222,-0.32977c0,0 -0.46424,-0.18569 -0.27854,-0.64993z" fill="#004200" stroke="none"/><path d="M250.83125,62.73333c0,4.69442 -3.97347,8.5 -8.875,8.5c-4.90153,0 -8.875,-3.80558 -8.875,-8.5c0,-4.69442 3.97347,-8.5 8.875,-8.5c4.90153,0 8.875,3.80558 8.875,8.5z" fill="#fff400" stroke="#000000"/><path d="M252.58125,72.98333c0,0.9665 -0.7835,1.75 -1.75,1.75c-0.71588,0 -1.33136,-0.42985 -1.60242,-1.04553l-0.42078,-0.90166c-0.02708,0.15314 -0.06434,0.29713 -0.11333,0.421l-0.11689,1.63647c-0.0569,0.91513 -0.81712,1.63973 -1.74658,1.63973c-0.89129,0 -1.62696,-0.66631 -1.73605,-1.52798l-0.07823,-0.5476c-0.15658,-0.08246 -0.29913,-0.18795 -0.42316,-0.31198l-1.15065,-1.15065l-0.82815,0.72463c-0.30865,0.27292 -0.71436,0.43857 -1.15876,0.43857c-0.91584,0 -1.66737,-0.70352 -1.74363,-1.59962l-0.29917,0.59834c-0.2806,0.59193 -0.8836,1.00129 -1.5822,1.00129c-0.71898,0 -1.33669,-0.43358 -1.60593,-1.05354c-0.31364,-0.16336 -0.61398,-0.38559 -0.88527,-0.64658c-0.16101,0.04885 -0.33184,0.07512 -0.50881,0.07512c-0.87352,0 -1.59755,-0.64 -1.72878,-1.47667c-0.64684,0.29662 -1.24852,0.42215 -1.93599,0.42561l0.01753,0.29804l-2.10968,0.1241c-0.03902,0.0026 -0.0784,0.00392 -0.11808,0.00392c-0.9665,0 -1.75,-0.7835 -1.75,-1.75c0,-0.46145 0.1786,-0.88118 0.47045,-1.19385l1.33323,-1.43679c0.18356,-0.2152 0.37864,-0.4368 0.5843,-0.65517c-0.00857,-0.0702 -0.01298,-0.14168 -0.01298,-0.21419c0,-0.43033 0.15532,-0.82438 0.41297,-1.12915l0.39219,-0.47063c-0.0984,-0.00308 -0.20295,-0.00152 -0.30263,-0.00364l-0.04014,0.09812l-2.71236,-1.1096c-0.65786,-0.2516 -1.12503,-0.88879 -1.12503,-1.6351c0,-0.84231 0.59509,-1.54563 1.38777,-1.71246c0.08914,-0.73654 0.63583,-1.33208 1.34741,-1.49396c-0.52693,-1.03557 -0.80471,-2.10738 -0.64371,-2.94565c-0.91305,-1.33841 0.54918,-2.34066 2.54729,-3.04536c-0.08228,-0.25044 -0.15726,-0.49895 -0.20263,-0.73979l-0.15214,0.03043l-0.49291,-2.46457c-0.02689,-0.12193 -0.04107,-0.24863 -0.04107,-0.37864c0,-0.9665 0.7835,-1.75 1.75,-1.75c0.28117,0 0.54685,0.06631 0.78225,0.18414l2.3419,1.10932l-0.01233,0.02603l0.11268,0.02553c0.251,0.16103 0.49862,0.30555 0.73839,0.44035c0.13934,0.0005 0.27917,0.0031 0.41915,0.00772c-0.0851,-0.20586 -0.13205,-0.43149 -0.13205,-0.66808c0,-0.9665 0.7835,-1.75 1.75,-1.75c0.2684,0 0.52269,0.06042 0.75,0.16841v-0.91841c0,-0.9665 0.7835,-1.75 1.75,-1.75c0.42506,0 0.81473,0.15154 1.11792,0.40355l1.36525,1.11702l-0.27328,0.33401c0.54636,0.43627 0.95645,0.90337 1.30356,1.47039l0.01541,-0.02311c0.31159,-0.48248 0.85407,-0.80186 1.47114,-0.80186c0.47675,0 0.90897,0.19064 1.2246,0.49985c0.20107,-0.08054 0.42056,-0.12485 0.6504,-0.12485c0.9665,0 1.75,0.7835 1.75,1.75v0.41212l1.60537,-0.45868c0.16417,-0.05098 0.33869,-0.07844 0.51963,-0.07844c0.9665,0 1.75,0.7835 1.75,1.75c0,0.08488 -0.00604,0.16835 -0.01772,0.25h1.76772c0.9665,0 1.75,0.7835 1.75,1.75c0,0.44897 -0.16907,0.85844 -0.44701,1.16824l-1.17071,1.31705c0.15422,0.2607 0.24272,0.56487 0.24272,0.88971c0,0.43472 -0.15851,0.83242 -0.42089,1.13845l-0.43923,0.5191l2.03239,0.22582c0.88564,0.08654 1.57773,0.83326 1.57773,1.74163c0,0.50118 -0.21068,0.95316 -0.54832,1.27219c0.03684,0.00171 0.07359,0.00366 0.11023,0.00583l0.18345,0.13683l0.02662,-0.08519l1.96204,0.61314c0.73107,0.20997 1.26598,0.88362 1.26598,1.6822c0,0.9331 -0.73029,1.69563 -1.65049,1.74722l-0.41503,0.02678c0.04268,0.15134 0.06552,0.31101 0.06552,0.47601c0,0.86021 -0.62066,1.57547 -1.43859,1.72237l-1.84321,0.36864l-0.0057,-0.02852c-0.05454,0.01908 -0.10955,0.0371 -0.16506,0.05399c-0.48575,0.14779 -1.14983,0.25763 -1.8089,0.27579c0.04468,0.04251 0.08615,0.0828 0.12389,0.12029l1.375,1.375c0.31669,0.31669 0.51256,0.75419 0.51256,1.23744c0,0.9665 -0.7835,1.75 -1.75,1.75c-0.25471,0 -0.49672,-0.05442 -0.71502,-0.15226l-0.28498,-0.11999zM236.35625,61.43333c0.39082,0.52109 0.44222,0.99369 0.35272,1.38171l1.8308,-0.40685c0.13348,-0.03259 0.27296,-0.04986 0.41647,-0.04986c0.9665,0 1.75,0.7835 1.75,1.75c0,0.31202 -0.08166,0.60497 -0.22477,0.85863l-0.31926,0.59291c0.08995,0.05932 0.17565,0.12984 0.25792,0.20939c0.29714,-0.54282 0.87363,-0.91093 1.5361,-0.91093c0.44302,0 0.8476,0.16462 1.15588,0.43603c1.41315,-0.20472 3.73806,1.02194 5.01912,2.4259c-0.51048,-0.81915 -0.7581,-1.64932 -0.34294,-2.31269c0.1673,-0.26732 1.16814,-0.53015 2.37018,-0.72397c-0.02066,-0.10753 -0.03148,-0.21857 -0.03148,-0.33213c0,-0.31575 0.08362,-0.61196 0.22993,-0.86771c-0.3244,-0.31766 -0.5257,-0.76054 -0.5257,-1.25044c0,-0.12249 0.01258,-0.24204 0.03653,-0.35742l-0.96397,0.0964c-0.06485,0.00729 -0.13076,0.01103 -0.19756,0.01103c-0.9665,0 -1.75,-0.7835 -1.75,-1.75c0,-0.3602 0.10882,-0.69499 0.29539,-0.97327c-0.54461,-0.1911 -0.96609,-0.64394 -1.11354,-1.20761c-0.38831,-0.14755 -0.91188,-0.5014 -1.61726,-1.15676c-0.16062,-0.14923 -0.25827,-0.33455 -0.31049,-0.54206c-0.04263,0.00311 -0.08568,0.00469 -0.12911,0.00469c-0.18282,0 -0.35909,-0.02803 -0.52475,-0.08004c-0.14021,0.82604 -0.85928,1.45504 -1.72525,1.45504c-0.54152,0 -1.02559,-0.24596 -1.34659,-0.63226c-0.04094,0.31136 -0.14973,0.59301 -0.37523,0.82357c-0.2997,0.30643 -0.71928,0.38052 -1.17526,0.33746c-0.13351,0.834 -0.8563,1.47122 -1.72792,1.47122c-0.27517,0 -0.53551,-0.06351 -0.76716,-0.17667l-0.73401,-0.33877c0.20831,0.30669 0.36886,0.60382 0.26545,0.82616c0.22624,0.29489 0.36072,0.66388 0.36072,1.06428c0,0.09062 -0.00689,0.17963 -0.02017,0.26654c0.01512,0.01899 0.03018,0.03848 0.04517,0.05846z" fill="#ff008a" stroke="none"/></g></g></svg>