<svg version="1.1" xmlns="http://www.w3.org/2000/svg" xmlns:xlink="http://www.w3.org/1999/xlink" width="46.34738" height="57.39976" viewBox="0,0,46.34738,57.39976"><g transform="translate(-215.60768,-126.93711)"><g data-paper-data="{&quot;isPaintingLayer&quot;:true}" fill-rule="nonzero" stroke="none" stroke-width="0.5" stroke-linecap="butt" stroke-linejoin="miter" stroke-miterlimit="10" stroke-dasharray="" stroke-dashoffset="0" style="mix-blend-mode: normal"><path d="M228.28408,165.89378c-1.55203,-0.08454 -3.30955,0.32845 -4.63847,-0.47772c-2.64693,-1.60573 -2.09868,-5.01433 -0.54883,-6.92869c1.077,-1.33028 4.2254,-1.94392 5.74178,-2.05862c1.76609,-0.1336 3.28781,-0.0121 4.66352,0.3118c0.65741,0.23279 1.31179,0.46444 1.99389,0.64237c0.02692,0.01108 0.0538,0.02225 0.08062,0.03349c0.13414,0.09462 0.28773,0.1635 0.4536,0.19946c1.12638,0.51862 2.1837,1.17885 3.24797,1.93992c0.09914,-0.00257 0.19892,-0.00433 0.29937,-0.00529l1.38316,0.56829c2.43714,-2.62145 5.14036,-4.14816 9.5622,-3.51121c3.52365,0.50756 10.24721,3.11225 8.04267,8.15735c-0.48449,1.10876 -1.86688,1.58667 -2.96587,2.09293c-4.12153,1.89864 -9.35607,-0.29474 -13.54348,-0.96697c-0.02563,0.00559 -0.05118,0.01051 -0.07661,0.01481c-0.49887,0.97839 -2.143,3.33319 -1.49907,4.54967c0.31576,0.59653 1.09939,0.87128 1.37291,1.48831c0.72351,1.63214 0.65301,3.60278 0.42897,5.4346c0.73737,0.06156 1.46636,0.22675 2.12982,0.5258c0.57235,0.25798 0.52792,1.24719 1.08266,1.54114c1.06684,0.56529 1.4369,-2.33785 2.63527,-2.48488c2.95169,-0.36217 4.91328,2.33765 7.28548,3.39925l-0.36937,-0.18408c0,0 2,0 2,2c0,2 -2,2 -2,2l-1.30686,-0.18408c-0.76451,-0.36112 -1.58324,-0.62472 -2.29355,-1.08336c-0.86753,-0.56016 -1.33596,-2.46035 -2.29597,-2.07989c-0.42122,0.16693 -0.17164,1.01571 -0.56823,1.23483c-1.22093,0.67457 -2.59635,1.42215 -3.984,1.28029c-0.92418,-0.09448 -1.25229,-1.40764 -2.04234,-1.89635c-1.59506,-0.98668 -4.34977,2.00927 -5.53836,1.91222c-0.77706,-0.06346 -0.75556,-1.49542 -1.46167,-1.82597c-0.37562,-0.17584 -0.69955,0.44723 -1.06511,0.6431c-1.39351,0.7466 -2.8407,1.39277 -4.29966,2.00164c0,0 -1.84615,0.76923 -2.61538,-1.07693c-0.76923,-1.84616 1.07692,-2.61539 1.07692,-2.61539c2.48814,-1.03496 5.51596,-3.28623 8.38522,-2.66776c0.57592,0.12414 0.20101,1.34383 0.72583,1.61152c0.30603,0.15609 0.11367,-0.69671 0.3302,-0.98479c0.21356,-1.26587 0.76205,-3.62034 0.14581,-4.78725c-0.80596,-1.52616 -1.91771,-3.16129 -1.7369,-4.8777c0.12652,-1.20111 1.04587,-2.98078 1.68481,-4.23703c-0.04776,-0.34156 0.01469,-0.66281 0.10451,-0.92233c-3.45846,0.41127 -6.31169,2.47484 -10.00745,2.27352z" fill="#008c01"/><path d="M258.20252,162.1755c0,0.5 -0.5,0.5 -0.5,0.5l-0.25344,-0.00953c-4.36164,-0.86437 -7.46436,-1.187 -11.836,-0.31268c0,0 -0.49029,0.09806 -0.58835,-0.39223c-0.09806,-0.49029 0.39223,-0.58835 0.39223,-0.58835c4.49113,-0.89822 7.74767,-0.5751 12.2265,0.31233l0.05906,-0.00954c0,0 0.5,0 0.5,0.5z" fill="#004200"/><path d="M223.29628,162.01925c0,-0.5 0.5,-0.5 0.5,-0.5l-0.1211,0.08397c3.48342,-2.30035 8.8458,-1.95873 12.74237,-1.00655c0,0 0.48507,0.12127 0.3638,0.60634c-0.12127,0.48507 -0.60634,0.3638 -0.60634,0.3638c-3.54353,-0.91011 -8.77809,-1.26703 -11.94513,0.86845l-0.4336,0.08397c0,0 -0.5,0 -0.5,-0.5z" fill="#004200"/><path d="M226.15825,135.98297c-1.02079,-0.60646 -2.33258,-1.12229 -2.7859,-2.2197c-2.89204,-7.0012 7.6243,-7.32732 11.3117,-6.51212c3.13003,0.69197 4.22962,2.19253 6.22573,3.83338c2.65885,-1.87924 4.97079,-3.13504 8.5115,-2.94027c1.21457,0.06681 2.64714,-0.36219 3.63227,0.35138c1.76818,1.28078 2.14596,4.92908 1.07325,6.7029c-2.46864,4.08211 -9.48959,2.61738 -13.69733,1.41116c-1.16155,2.13582 -2.4976,4.52042 -1.63618,6.89309c1.11329,3.06643 5.14383,2.57367 6.1237,6.02298c0.33958,1.19537 0.31836,2.5421 -0.0542,3.7276c-0.24734,0.78704 -1.2408,1.11716 -1.68652,1.81139c-0.81491,1.26925 -0.19346,3.85462 -0.19249,5.23575c0,0 0,2 -2,2c-2,0 -2,-2 -2,-2c0.00191,-2.53404 -0.5455,-4.87438 0.745,-7.26425c0.68382,-1.26636 1.96435,-0.79528 1.38428,-2.2735c-0.44611,-1.13686 -1.36483,-0.94982 -2.31773,-1.60093c-1.60466,-1.09645 -3.03253,-2.37823 -3.74607,-4.25109c-1.20948,-3.17459 -0.10997,-6.03065 1.22273,-8.79724c-3.32907,0.99059 -6.93497,1.75802 -10.11374,-0.13052z" fill="#008c01"/><path d="M254.45253,158.26925c0,-0.05963 0.00261,-0.11866 0.00772,-0.17697c-0.26131,0.05227 -0.51657,0.1037 -0.75304,0.1332c-2.31192,0.28843 -4.0526,1.0062 -6.17296,1.88993c0,0 -1.84615,0.76923 -2.61538,-1.07693c-0.76923,-1.84616 1.07692,-2.61539 1.07692,-2.61539c3.14671,-1.31079 6.93718,-2.96294 10.45143,-2.31761c4.98269,0.91499 7.5075,8.84525 3.58851,12.2959c-2.96382,2.60964 -8.56816,2.09867 -12.00167,1.31665l-1.91035,-0.47725c0,0 -1.94028,-0.48507 -1.45521,-2.42535c0.48507,-1.94028 2.42535,-1.45521 2.42535,-1.45521l1.83965,0.46025c2.63501,0.61733 4.75707,0.62446 7.37615,-0.11165c0.30926,-0.08692 1.7152,-0.39978 1.79561,-1.07792c0.10583,-0.89258 -0.36993,-1.74376 -0.70991,-2.59737c-0.28089,0.15043 -0.6019,0.23573 -0.94281,0.23573c-1.10457,0 -2,-0.89543 -2,-2z" fill="#008c01"/><path d="M237.31439,160.40706c-0.13447,0.62751 -0.42714,1.01052 -0.76264,1.24132c0.09745,0.15818 0.18236,0.34461 0.24984,0.56395c0.58817,1.91156 -1.32339,2.49973 -1.32339,2.49973l-2.17209,0.66277c-4.34814,0.67959 -9.40004,1.87155 -13.71017,0.26896c-3.69725,-1.37471 -5.40715,-4.92862 -2.57119,-8.27373c2.74409,-3.23674 7.46142,-2.88915 11.75837,-2.37202c0.26574,0.43119 0.77801,0.5709 0.77801,0.5709l1.7316,0.47218c1.48626,0.36547 2.80738,0.98439 4.25679,1.35564c0.16003,0.1194 0.34962,0.20138 0.5558,0.23298c-0.00878,0.1769 -0.03398,0.33695 -0.07239,0.48177c0.51524,0.19294 1.60466,0.78721 1.28145,2.29553zM230.95275,160.72188c0,0 -1.1602,-0.51565 -1.22098,-1.64965c-1.82446,-0.25422 -3.66343,-0.51351 -5.46725,-0.4166c-0.23073,0.61859 -0.75889,1.09225 -1.41056,1.24704c0.08389,0.22073 0.12982,0.46017 0.12982,0.71033c0,0.56664 -0.23565,1.07825 -0.61429,1.44216c0.05647,0.00479 0.10639,0.00986 0.14853,0.01564c3.43439,0.47118 6.48691,-0.08025 9.89343,-0.59463l0.19739,-0.06132z" fill="#008c01"/><path d="M219.28778,158.70425c-1.06,-1.696 0.636,-2.75599 0.636,-2.75599l1.63733,-0.96874c6.13794,-2.11619 11.27066,0.41357 16.22402,4.01601c0,0 1.61747,1.17634 0.44113,2.79382c-1.17634,1.61747 -2.79382,0.44113 -2.79382,0.44113c-3.75438,-2.73046 -7.81576,-5.24528 -12.52598,-3.48399l-0.86267,0.59376c0,0 -1.696,1.06 -2.75599,-0.636z" fill="#008c01"/><path d="M235.36437,160.77111c-0.15811,0.47434 -0.63246,0.31623 -0.63246,0.31623l-0.31064,-0.13059c-1.51042,0 -3.02083,0 -4.53125,0c0,0 -0.5,0 -0.5,-0.5c0,-0.5 0.5,-0.5 0.5,-0.5c1.51042,0 3.02083,0 4.53125,0l0.62686,0.18191c0,0 0.47434,0.15811 0.31623,0.63246z" fill="#004200"/><path d="M252.68099,133.18036c-0.22361,0.44721 -0.67082,0.22361 -0.67082,0.22361l-0.08889,-0.10346c-2.8098,0 -5.92489,-0.31077 -8.59189,0.59934c0,0 -0.47434,0.15811 -0.63246,-0.31623c-0.15811,-0.47434 0.31623,-0.63246 0.31623,-0.63246c2.80916,-0.91756 5.96235,-0.65066 8.90811,-0.65066l0.53611,0.20904c0,0 0.44721,0.22361 0.22361,0.67082z" fill="#004200"/><path d="M226.63032,131.77411c-0.22361,-0.44721 0.22361,-0.67082 0.22361,-0.67082l0.25876,-0.12506c2.37998,-1.48458 6.73772,0.5996 9.2658,1.01658c0,0 0.4932,0.0822 0.411,0.5754c-0.0822,0.4932 -0.5754,0.411 -0.5754,0.411c-1.93022,-0.32478 -6.80619,-2.46471 -8.5467,-1.17092l-0.36624,0.18744c0,0 -0.44721,0.22361 -0.67082,-0.22361z" fill="#004200"/></g></g></svg>