<svg version="1.1" xmlns="http://www.w3.org/2000/svg" xmlns:xlink="http://www.w3.org/1999/xlink" width="100.28756" height="49.19297" viewBox="0,0,100.28756,49.19297"><g transform="translate(-184.51982,-144.34962)"><g data-paper-data="{&quot;isPaintingLayer&quot;:true}" fill-rule="nonzero" stroke="none" stroke-width="0.5" stroke-linecap="butt" stroke-linejoin="miter" stroke-miterlimit="10" stroke-dasharray="" stroke-dashoffset="0" style="mix-blend-mode: normal"><path d="M221.67966,173.42594c0.01304,-1.13589 0.03669,-2.07412 0.07844,-2.22861c0.0538,-0.19905 0.12639,-0.40773 0.21551,-0.62384c-0.7875,0.64678 -1.94179,0.75757 -2.76743,1.36879c-0.36924,0.27335 -0.57576,0.71093 -0.83326,1.09935c1.02479,-0.11655 2.10028,-0.17158 3.01809,0.24642c0.09925,0.0452 0.19542,0.09117 0.28865,0.13789zM224.7744,166.47559c1.0879,-1.20204 2.27043,-2.24721 3.21165,-2.80381c6.53084,-3.86203 17.94061,-2.00346 22.78722,3.73857c2.70784,3.20812 2.03295,6.72901 1.9806,10.52672c-0.51615,1.18439 -0.67904,2.59751 -1.54846,3.55318c-0.86733,0.95338 -2.28113,1.20358 -3.3847,1.86941c-1.50718,0.90934 -3.56919,2.02461 -5.79315,2.90394c1.93683,0.0326 3.87187,0.0366 5.7829,-0.09522c0.34793,-0.024 5.04076,-0.51483 5.76984,-0.98601c2.79883,-1.80874 4.04165,-6.08346 4.01802,-9.11798c-0.01768,-2.27099 0.79281,-6.02435 0.10727,-8.14162c-0.37179,-1.14824 -2.92124,-3.43458 -3.57476,-4.08968c-3.70575,-3.71479 -9.89512,-5.41696 -15.03111,-5.33403c-3.2408,0 -9.23527,-1.36652 -11.52463,1.78935c-1.2287,1.69376 -1.82068,4.23847 -2.8007,6.18718zM229.54558,184.64762c-0.3103,-0.53424 -0.57531,-1.14813 -0.78794,-1.84964c-1.17425,-3.87394 1.79715,-11.29632 5.52604,-13.18657c1.15674,-0.58638 2.58595,-0.23716 3.88279,-0.24674c1.25375,-0.00926 2.64023,-0.38053 3.75652,0.1903c3.74574,1.91542 3.90288,4.0508 2.86948,7.57868c-0.24862,0.84875 -0.44197,1.81953 -0.79237,2.66412c0.45292,-0.2693 0.89085,-0.5283 1.31099,-0.76267c0.94742,-0.52851 2.23494,-1.00047 2.53301,-2.04358c-0.03544,-1.82841 0.66472,-4.79718 -0.81921,-6.27216c-3.60376,-3.58204 -11.68034,-5.70124 -16.41017,-2.79433c-4.12042,2.53237 -3.92319,5.77048 -3.94732,10.0059c-0.00346,0.60674 -0.02081,1.18192 -0.01557,1.72803c0.06692,0.26067 0.08739,0.55259 0.03528,0.87576c0.11461,1.43309 0.55993,2.65145 2.12296,3.70855c0.22277,0.15067 0.46976,0.28446 0.73551,0.40436zM240.52043,181.71535c-0.76708,-0.13192 -1.56111,-0.36183 -2.29833,-0.38516c0,0 -2.46598,-0.411 -2.05499,-2.87698c0.411,-2.46598 2.87698,-2.05499 2.87698,-2.05499c0.36643,0.26362 0.69954,1.00052 1.0993,0.79086c0.37697,-0.19771 -0.25193,-0.83778 -0.20349,-1.26068c0.05777,-0.50435 0.49203,-0.92699 0.51218,-1.43424c0.03028,-0.76249 -1.52262,-0.11739 -2.28562,-0.12949c-0.57809,-0.00917 -1.19607,-0.49786 -1.71684,-0.24674c-0.52658,0.25392 -0.59664,1.00554 -0.89693,1.50713c-0.46828,0.78216 -3.75364,5.89605 -1.60298,6.75607c2.20019,0.87982 4.4571,0.31513 6.57073,-0.66577zM221.86271,181.51471l-0.94978,-0.78876c-0.03604,-0.09718 -0.75736,-2.63564 -1.43533,-2.8185c-2.49859,-0.67392 -4.37431,2.85881 -6.78468,-1.48682c-1.41611,-2.55308 1.61521,-6.87997 3.36988,-8.36667c0.76933,-0.65184 1.94849,-0.67713 2.717,-1.32994c2.53139,-2.15027 2.74278,-6.8975 4.77969,-9.41469c3.95422,-4.88657 10.03279,-3.81027 15.54023,-3.81027c8.3765,0.10105 20.33501,3.95024 23.39133,12.97479c0.85808,2.53369 0.12519,6.88939 0.10727,9.59054c-0.03051,4.5984 -2.01321,10.60909 -6.24796,13.28052c-5.39786,3.40517 -14.78028,1.84119 -20.86384,1.79447c-2.81126,-0.78622 -6.98447,-0.98039 -9.42891,-2.72191c-2.80572,-1.9989 -3.82928,-4.19885 -4.1949,-6.90277z" fill="#775709"/><path d="M221.42536,173.32439c-0.9178,-0.41799 -2.07092,-0.37425 -3.09571,-0.25771c0.2575,-0.38841 0.45738,-0.85401 0.82662,-1.12736c0.82564,-0.61122 2.06904,-0.7501 2.85653,-1.39688c-0.08912,0.2161 -0.1563,0.43326 -0.2101,0.6323c-0.04176,0.15449 -0.0737,1.14968 -0.08674,2.28557c-0.09323,-0.04673 -0.19136,-0.09073 -0.29061,-0.13593z" data-paper-data="{&quot;noHover&quot;:false,&quot;origItem&quot;:[&quot;Path&quot;,{&quot;applyMatrix&quot;:true,&quot;segments&quot;:[[[221.67966,173.42594],[-0.09323,-0.04673],[0.01304,-1.13589]],[[221.75811,171.19733],[-0.04176,0.15449],[0.0538,-0.19905]],[[221.97362,170.57349],[-0.08912,0.2161],[-0.7875,0.64678]],[[219.20619,171.94229],[0.82564,-0.61122],[-0.36924,0.27335]],[[218.37293,173.04164],[0.2575,-0.38841],[1.02479,-0.11655]],[[221.39102,173.28805],[-0.9178,-0.41799],[0.09925,0.0452]]],&quot;closed&quot;:true}]}" fill="#a97d0e"/><path d="M233.91995,182.4213c-2.15065,-0.86001 1.14317,-6.05933 1.61145,-6.84149c0.3003,-0.50159 0.38675,-1.25772 0.91333,-1.51164c0.52078,-0.25112 1.15879,0.23969 1.73688,0.24885c0.763,0.0121 2.33438,-0.62236 2.3041,0.14013c-0.02015,0.50725 -0.4493,0.93527 -0.50707,1.43962c-0.04844,0.4229 0.58847,1.07683 0.2115,1.27454c-0.39976,0.20966 -0.81609,-0.47528 -1.18252,-0.7389c0,0 -2.37952,-0.44667 -2.79052,2.01931c-0.411,2.46598 1.98391,2.83314 1.98391,2.83314c0.73722,0.02333 1.58951,0.33202 2.35659,0.46395c-2.11363,0.9809 -4.43745,1.55232 -6.63764,0.6725z" data-paper-data="{&quot;noHover&quot;:false,&quot;origItem&quot;:[&quot;Path&quot;,{&quot;applyMatrix&quot;:true,&quot;segments&quot;:[[[240.52043,181.71535],[-2.11363,0.9809],[-0.76708,-0.13192]],[[238.2221,181.33018],[0.73722,0.02333],[0,0]],[[236.16711,178.4532],[-0.411,2.46598],[0.411,-2.46598]],[[239.04409,176.39822],[0,0],[0.36643,0.26362]],[[240.14339,177.18907],[-0.39976,0.20966],[0.37697,-0.19771]],[[239.9399,175.92839],[-0.04844,0.4229],[0.05777,-0.50435]],[[240.45208,174.49415],[-0.02015,0.50725],[0.03028,-0.76249]],[[238.16646,174.36467],[0.763,0.0121],[-0.57809,-0.00917]],[[236.44962,174.11792],[0.52078,-0.25112],[-0.52658,0.25392]],[[235.55268,175.62505],[0.3003,-0.50159],[-0.46828,0.78216]],[[233.9497,182.38112],[-2.15065,-0.86001],[2.20019,0.87982]]],&quot;closed&quot;:true}]}" fill="#a97d0e"/><path d="M228.77499,184.2789c-1.56303,-1.0571 -2.01863,-2.29005 -2.13324,-3.72314c0.0521,-0.32317 0.03026,-0.61836 -0.03666,-0.87903c-0.00524,-0.5461 0.01,-1.12838 0.01345,-1.73512c0.02413,-4.23541 -0.15712,-7.52187 3.96329,-10.05425c4.72983,-2.90691 12.88395,-0.77251 16.48771,2.80953c1.48393,1.47499 0.78867,4.47276 0.82412,6.30117c-0.29807,1.04311 -1.58921,1.52826 -2.53663,2.05676c-0.42014,0.23437 -0.94638,0.44709 -1.3993,0.71639c0.35039,-0.84459 0.53712,-1.79883 0.78574,-2.64757c1.03341,-3.52789 0.89495,-5.61347 -2.85079,-7.52889c-1.1163,-0.57083 -2.47924,-0.1898 -3.73299,-0.18053c-1.29684,0.00958 -2.69672,-0.34456 -3.85346,0.24182c-3.72889,1.89025 -6.68458,9.23584 -5.51033,13.10978c0.21264,0.70151 0.47195,1.30965 0.78225,1.84389c-0.26575,-0.1199 -0.5804,-0.18014 -0.80317,-0.3308z" data-paper-data="{&quot;noHover&quot;:false,&quot;origItem&quot;:[&quot;Path&quot;,{&quot;applyMatrix&quot;:true,&quot;segments&quot;:[[[229.54558,184.64762],[-0.26575,-0.1199],[-0.3103,-0.53424]],[[228.75764,182.79798],[0.21264,0.70151],[-1.17425,-3.87394]],[[234.28367,169.61141],[-3.72889,1.89025],[1.15674,-0.58638]],[[238.16646,169.36467],[-1.29684,0.00958],[1.25375,-0.00926]],[[241.92298,169.55497],[-1.1163,-0.57083],[3.74574,1.91542]],[[244.79246,177.13365],[1.03341,-3.52789],[-0.24862,0.84875]],[[244.00009,179.79778],[0.35039,-0.84459],[0.45292,-0.2693]],[[245.31108,179.0351],[-0.42014,0.23437],[0.94742,-0.52851]],[[247.84409,176.99152],[-0.29807,1.04311],[-0.03544,-1.82841]],[[247.02488,170.71936],[1.48393,1.47499],[-3.60376,-3.58204]],[[230.61471,167.92503],[4.72983,-2.90691],[-4.12042,2.53237]],[[226.66739,177.93093],[0.02413,-4.23541],[-0.00346,0.60674]],[[226.65183,179.65895],[-0.00524,-0.5461],[0.06692,0.26067]],[[226.68711,180.53472],[0.0521,-0.32317],[0.11461,1.43309]],[[228.81007,184.24327],[-1.56303,-1.0571],[0.22277,0.15067]]],&quot;closed&quot;:true}]}" fill="#a97d0e"/><path d="M227.53731,160.25567c2.28935,-3.15588 8.31344,-1.80594 11.55425,-1.80594c5.13599,-0.08293 11.37528,1.64104 15.08103,5.35583c0.65351,0.65511 3.20957,2.95618 3.58135,4.10442c0.68554,2.11726 -0.12462,5.89488 -0.10694,8.16587c0.02362,3.03452 -1.23356,7.33415 -4.03239,9.1429c-0.72909,0.47117 -5.43525,0.97102 -5.78318,0.99502c-1.91102,0.13182 -3.86935,0.03248 -5.80618,-0.00012c2.22396,-0.87933 4.26321,-1.98791 5.77039,-2.89726c1.10358,-0.66583 2.50603,-0.90703 3.37336,-1.86041c0.86942,-0.95568 1.02401,-2.3569 1.54016,-3.5413c0.05235,-3.79771 0.72749,-7.27335 -1.98035,-10.48146c-4.8466,-5.74203 -16.1698,-7.59652 -22.70064,-3.73449c-0.94123,0.5566 -2.2131,1.5584 -3.301,2.76045c0.98002,-1.9487 1.58144,-4.50974 2.81014,-6.2035z" data-paper-data="{&quot;noHover&quot;:false,&quot;origItem&quot;:[&quot;Path&quot;,{&quot;applyMatrix&quot;:true,&quot;segments&quot;:[[[224.7744,166.47559],[0.98002,-1.9487],[1.0879,-1.20204]],[[227.98606,163.67178],[-0.94123,0.5566],[6.53084,-3.86203]],[[250.77327,167.41035],[-4.8466,-5.74203],[2.70784,3.20812]],[[252.75388,177.93706],[0.05235,-3.79771],[-0.51615,1.18439]],[[251.20542,181.49024],[0.86942,-0.95568],[-0.86733,0.95338]],[[247.82072,183.35965],[1.10358,-0.66583],[-1.50718,0.90934]],[[242.02756,186.2636],[2.22396,-0.87933],[1.93683,0.0326]],[[247.81046,186.16838],[-1.91102,0.13182],[0.34793,-0.024]],[[253.58031,185.18237],[-0.72909,0.47117],[2.79883,-1.80874]],[[257.59833,176.06439],[0.02362,3.03452],[-0.01768,-2.27099]],[[257.7056,167.92277],[0.68554,2.11726],[-0.37179,-1.14824]],[[254.13084,163.83309],[0.65351,0.65511],[-3.70575,-3.71479]],[[239.09973,158.49906],[5.13599,-0.08293],[-3.2408,0]],[[227.5751,160.28841],[2.28935,-3.15588],[-1.2287,1.69376]]],&quot;closed&quot;:true}]}" fill="#a97d0e"/><path d="M222.76487,183.54439c0,0.43407 -0.0851,0.84826 -0.23952,1.22681c0.04291,0.00632 0.08592,0.01218 0.12905,0.01757l1.97962,-0.02513c0,0 2.5,0 2.5,2.5c0,2.5 -2.5,2.5 -2.5,2.5l-2.68673,-0.02513c-1.24978,-0.1952 -2.54696,-0.19273 -3.74934,-0.58559c-0.80758,-0.26387 -1.34859,-1.10818 -2.16406,-1.34654c-1.87689,-0.54859 -3.91014,0.09318 -5.86556,0.09071c-2.1333,-0.0027 -4.27047,-0.2266 -6.37274,-0.58918c-1.2888,-0.69486 -2.79851,-1.08287 -3.86641,-2.08459c-0.70524,-0.66154 -0.62556,-1.85798 -1.18067,-2.64972c-1.2826,-1.82934 -3.54531,-2.98863 -4.40709,-5.04992c-0.69302,-1.65762 -0.81562,-5.90235 -0.66364,-7.73177c0.05363,-0.64561 0.13811,-1.29813 0.26108,-1.94281c-0.5439,-0.03228 -1.0585,-0.14517 -1.50434,-0.44718c-1.16014,-0.78585 -1.45477,-2.41488 -1.93923,-3.72971c-0.32712,-0.8878 -0.22653,-1.88464 -0.46664,-2.79981c-0.40632,-1.54869 -1.24993,-2.98476 -2.04173,-4.43031c-0.07175,0.00473 -0.14414,0.00714 -0.2171,0.00714c-1.79493,0 -3.25,-1.45507 -3.25,-3.25c0,-1.79493 1.45507,-3.25 3.25,-3.25c1.42026,0 2.62774,0.91102 3.06995,2.18058l0.65115,0.14095c0.9904,2.50101 2.61875,4.64644 3.35279,7.25437c0.25634,0.91076 0.36743,1.85888 0.46664,2.79981c0.03283,0.31143 -0.36519,0.82481 -0.07269,0.93665c0.196,0.07494 0.39593,0.03231 0.59726,-0.05199c0.91119,-1.21402 2.16413,-2.15679 3.86673,-2.62031c1.56648,-0.42646 3.07081,-0.30241 4.45977,0.20937c0.39418,-0.53255 0.79735,-1.05923 1.17899,-1.59503c1.90329,-2.67212 3.42617,-6.84996 4.29065,-9.95764l0.64018,-0.89849c-0.05655,-0.24011 -0.08647,-0.49051 -0.08647,-0.74788c0,-1.79493 1.45507,-3.25 3.25,-3.25c1.79493,0 3.25,1.45507 3.25,3.25c0,1.33181 -0.80108,2.47651 -1.94767,2.97855c-0.21793,0.40585 -0.46783,0.65576 -0.46783,0.65576l0.14763,-0.53534c-0.00049,0.00016 -0.00099,0.00031 -0.00148,0.00047c-1.07648,3.66719 -2.82339,8.24382 -5.0188,11.42814c-0.35941,0.5213 -0.77576,1.01344 -1.17487,1.5146c2.22334,2.40763 3.70436,5.71621 3.97142,8.48331c0.17665,1.8303 -0.71407,3.71216 -0.31598,5.50735c0.06166,0.27806 0.54032,0.21376 0.82501,0.22237c1.17731,0.03557 2.35492,-0.06048 3.53239,-0.09071c0,0 0.43125,0 0.93552,0.17911c0.28775,-0.11554 0.60196,-0.17911 0.93102,-0.17911c1.38071,0 2.5,1.11929 2.5,2.5c0,0.07178 -0.00302,0.14285 -0.00895,0.21309c1.26544,0.44445 2.17269,1.64987 2.17269,3.06719zM216.26861,182.76329c0.02915,0.00451 0.05827,0.00911 0.08736,0.01382c0.00156,-0.00643 0.00313,-0.01286 0.00473,-0.01928c-0.03938,0.0031 -0.07058,0.00467 -0.09209,0.00547z" fill="#a88835"/><path d="M259.16641,184.88775c0.73065,-0.74084 1.26681,-1.87317 1.98532,-2.63844c-0.04191,-0.19663 -0.0651,-0.41422 -0.0651,-0.65499c0,-2.5 2.5,-2.5 2.5,-2.5l1.77677,0.41987c1.6901,1.13647 3.0499,2.70943 4.69501,3.91011c2.11184,1.54133 5.38465,1.10677 7.75936,2.10637c0.99352,0.4182 1.93683,0.93682 2.85996,1.49578l1.94682,0.27812c1.23096,0.15585 2.18283,1.2068 2.18283,2.48007c0,1.16178 -0.79247,2.13847 -1.86634,2.41899l-2.67697,0.76485l-0.01852,-0.06484l-0.14689,0.10605c-3.44202,0.49118 -6.94578,0.65524 -10.42712,0.44016c-3.8596,-0.23845 -7.25561,-1.56484 -11.15511,-1.55523c0,0 -2.5,0 -2.5,-2.5c0,-2.5 2.5,-2.5 2.5,-2.5c0.08385,0.00018 0.16759,0.00068 0.25124,0.00148c-0.24041,-1.04962 0.39874,-2.00836 0.39874,-2.00836z" fill="#a88835"/></g></g></svg>