<svg version="1.1" xmlns="http://www.w3.org/2000/svg" xmlns:xlink="http://www.w3.org/1999/xlink" width="29.24512" height="13.6113" viewBox="0,0,29.24512,13.6113"><g transform="translate(-227.81668,-172.17861)"><g data-paper-data="{&quot;isPaintingLayer&quot;:true}" fill-rule="nonzero" stroke="none" stroke-width="0.5" stroke-linecap="butt" stroke-linejoin="miter" stroke-miterlimit="10" stroke-dasharray="" stroke-dashoffset="0" style="mix-blend-mode: normal"><path d="M228.44522,179.55311c0.15622,-0.15622 0.31244,-0.27793 0.46675,-0.37084c4.60774,-5.74715 11.52978,-7.56326 18.86901,-6.86009c3.19842,0.30644 5.47888,1.96855 7.37393,4.50555c0.68754,0.92044 1.95806,1.72447 1.9053,2.87213c-0.13635,2.96603 -3.07609,4.05946 -5.21818,4.78454c-3.54089,1.19856 -7.40521,1.30375 -11.0955,1.3055c-4.34306,-0.00357 -7.8963,-0.32202 -11.59327,-2.75525l-0.70804,-0.65311c0,0 -1.41421,-1.41421 0,-2.82843z" fill="#5d4800"/><path d="M255.56105,179.95926c0,0.5 -0.5,0.5 -0.5,0.5h-0.80645c-3.59518,0 -7.06729,-0.60484 -10.68548,-0.60484c-2.76597,-0.03228 -5.4622,0.81896 -8.23506,1.0071c-2.17553,0.14761 -3.84448,-0.10645 -5.8825,0.76699c0,0 -0.45957,0.19696 -0.65653,-0.26261c-0.19696,-0.45957 0.26261,-0.65653 0.26261,-0.65653c2.15332,-0.92285 3.92731,-0.68984 6.21428,-0.84591c2.80136,-0.19118 5.49934,-0.98385 8.2972,-1.00903c3.61878,0 7.09265,0.60484 10.68548,0.60484h0.80645c0,0 0.5,0 0.5,0.5z" fill="#312500"/></g></g></svg>