<svg version="1.1" xmlns="http://www.w3.org/2000/svg" xmlns:xlink="http://www.w3.org/1999/xlink" width="37.20272" height="27.96155" viewBox="0,0,37.20272,27.96155"><g transform="translate(-221.7974,-156.37529)"><g data-paper-data="{&quot;isPaintingLayer&quot;:true}" fill-rule="nonzero" stroke="none" stroke-width="0.5" stroke-linecap="butt" stroke-linejoin="miter" stroke-miterlimit="10" stroke-dasharray="" stroke-dashoffset="0" style="mix-blend-mode: normal"><path d="M228.28408,165.89378c-1.55203,-0.08454 -3.30955,0.32845 -4.63847,-0.47772c-2.64693,-1.60573 -2.09868,-5.01433 -0.54883,-6.92869c1.077,-1.33028 4.2254,-1.94392 5.74178,-2.05862c4.53666,-0.34318 7.46088,0.99692 10.43961,3.12704c0.09914,-0.00257 0.19892,-0.00433 0.29937,-0.00529l1.38316,0.56829c2.43714,-2.62145 5.14036,-4.14816 9.5622,-3.51121c3.52365,0.50756 10.24721,3.11225 8.04267,8.15735c-0.48449,1.10876 -1.86688,1.58667 -2.96587,2.09293c-4.12153,1.89864 -9.35607,-0.29474 -13.54348,-0.96697c-0.02563,0.00559 -0.05118,0.01051 -0.07661,0.01481c-0.49887,0.97839 -2.143,3.33319 -1.49907,4.54967c0.31576,0.59653 1.09939,0.87128 1.37291,1.48831c0.72351,1.63214 0.65301,3.60278 0.42897,5.4346c0.73737,0.06156 1.46636,0.22675 2.12982,0.5258c0.57235,0.25798 0.52792,1.24719 1.08266,1.54114c1.06684,0.56529 1.4369,-2.33785 2.63527,-2.48488c2.95169,-0.36217 4.91328,2.33765 7.28548,3.39925l-0.36937,-0.18408c0,0 2,0 2,2c0,2 -2,2 -2,2l-1.30686,-0.18408c-0.76451,-0.36112 -1.58324,-0.62472 -2.29355,-1.08336c-0.86753,-0.56016 -1.33596,-2.46035 -2.29597,-2.07989c-0.42122,0.16693 -0.17164,1.01571 -0.56823,1.23483c-1.22093,0.67457 -2.59635,1.42215 -3.984,1.28029c-0.92418,-0.09448 -1.25229,-1.40764 -2.04234,-1.89635c-1.59506,-0.98668 -4.34977,2.00927 -5.53836,1.91222c-0.77706,-0.06346 -0.75556,-1.49542 -1.46167,-1.82597c-0.37562,-0.17584 -0.69955,0.44723 -1.06511,0.6431c-1.39351,0.7466 -2.8407,1.39277 -4.29966,2.00164c0,0 -1.84615,0.76923 -2.61538,-1.07693c-0.76923,-1.84616 1.07692,-2.61539 1.07692,-2.61539c2.48814,-1.03496 5.51596,-3.28623 8.38522,-2.66776c0.57592,0.12414 0.20101,1.34383 0.72583,1.61152c0.30603,0.15609 0.11367,-0.69671 0.3302,-0.98479c0.21356,-1.26587 0.76205,-3.62034 0.14581,-4.78725c-0.80596,-1.52616 -1.91771,-3.16129 -1.7369,-4.8777c0.12652,-1.20111 1.04587,-2.98078 1.68481,-4.23703c-0.04776,-0.34156 0.01469,-0.66281 0.10451,-0.92233c-3.45846,0.41127 -6.31169,2.47484 -10.00745,2.27352z" fill="#008c01"/><path d="M258.20253,162.1755c0,0.5 -0.5,0.5 -0.5,0.5l-0.25344,-0.00953c-4.36164,-0.86437 -7.46436,-1.187 -11.836,-0.31268c0,0 -0.49029,0.09806 -0.58835,-0.39223c-0.09806,-0.49029 0.39223,-0.58835 0.39223,-0.58835c4.49113,-0.89822 7.74767,-0.5751 12.2265,0.31233l0.05906,-0.00954c0,0 0.5,0 0.5,0.5z" fill="#004200"/><path d="M223.29628,162.01925c0,-0.5 0.5,-0.5 0.5,-0.5l-0.1211,0.08397c3.48342,-2.30035 8.8458,-1.95873 12.74237,-1.00655c0,0 0.48507,0.12127 0.3638,0.60634c-0.12127,0.48507 -0.60634,0.3638 -0.60634,0.3638c-3.54353,-0.91011 -8.77809,-1.26703 -11.94513,0.86845l-0.4336,0.08397c0,0 -0.5,0 -0.5,-0.5z" fill="#004200"/></g></g></svg>