<svg version="1.1" xmlns="http://www.w3.org/2000/svg" xmlns:xlink="http://www.w3.org/1999/xlink" width="61.26101" height="133.05277" viewBox="0,0,61.26101,133.05277"><g transform="translate(-215.60769,-50.97171)"><g data-paper-data="{&quot;isPaintingLayer&quot;:true}" fill-rule="nonzero" stroke="none" stroke-width="0.5" stroke-linecap="butt" stroke-linejoin="miter" stroke-miterlimit="10" stroke-dasharray="" stroke-dashoffset="0" style="mix-blend-mode: normal"><path d="M223.64562,165.10368c-2.48271,-1.50611 -2.15441,-4.59831 -0.82521,-6.55591c0.32965,0.23355 0.67096,0.39109 1.05617,0.32801c2.92869,-0.47957 3.10127,-2.28505 6.11082,-2.4358l2.19859,-0.00839c0.21512,-0.0007 0.41744,-0.05574 0.59396,-0.15212c0.24535,0.04342 0.4859,0.09307 0.72214,0.14869c0.65741,0.23279 1.31179,0.46444 1.99389,0.64237c0.02692,0.01108 0.0538,0.02225 0.08062,0.03349c0.13414,0.09462 0.28773,0.1635 0.4536,0.19946c1.12638,0.51862 2.1837,1.17885 3.24797,1.93992c0.09914,-0.00257 0.19892,-0.00433 0.29937,-0.00529l1.38316,0.56829c1.4262,-1.53406 2.94352,-2.69322 4.84306,-3.26327c-0.07978,0.36254 -0.04288,0.86186 0.54177,1.25163c1.04006,0.69338 1.73344,-0.34669 1.73344,-0.34669c0.28453,-0.43267 0.5999,-0.84672 0.86283,-1.29242c0.50205,0.01407 1.02814,0.05989 1.5811,0.13954c3.30032,0.47539 9.40778,2.7905 8.35734,7.22739c-1.48842,0.03626 -2.95781,1.71998 -4.31016,1.95532c-1.89612,0.32996 -3.97105,-1.38854 -5.78327,-1.40854c-1.78635,-0.01972 -2.66551,1.06941 -3.83594,2.11436c-1.00026,-0.23554 -1.97282,-0.45724 -2.89464,-0.60522c-0.02563,0.00559 -0.05118,0.01051 -0.07661,0.01481c-0.49887,0.97839 -2.143,3.33319 -1.49907,4.54967c0.31576,0.59653 1.09939,0.87128 1.37291,1.48831c0.72351,1.63214 0.65301,3.60278 0.42897,5.4346c0.73737,0.06156 1.46636,0.22675 2.12982,0.5258c0.57235,0.25798 0.52792,1.24719 1.08266,1.54114c1.06684,0.56529 1.4369,-2.33785 2.63527,-2.48488c2.95169,-0.36217 4.91328,2.33765 7.28548,3.39925l-0.36937,-0.18408c0,0 2,0 2,2c0,2 -2,2 -2,2l-1.30686,-0.18408c-0.76451,-0.36112 -1.58324,-0.62472 -2.29355,-1.08336c-0.86753,-0.56016 -1.33596,-2.46035 -2.29597,-2.07989c-0.42122,0.16693 -0.17164,1.01571 -0.56823,1.23483c-1.22093,0.67457 -2.59635,1.42215 -3.984,1.28029c-0.92418,-0.09448 -1.25229,-1.40764 -2.04234,-1.89635c-1.59506,-0.98668 -4.34977,2.00927 -5.53836,1.91222c-0.77706,-0.06346 -0.75556,-1.49542 -1.46167,-1.82597c-0.37562,-0.17584 -0.69955,0.44723 -1.06511,0.6431c-1.39351,0.7466 -2.8407,1.39277 -4.29966,2.00164c0,0 -1.84615,0.76923 -2.61538,-1.07693c-0.76923,-1.84616 1.07692,-2.61539 1.07692,-2.61539c2.48814,-1.03496 5.51596,-3.28623 8.38522,-2.66776c0.57592,0.12414 0.20101,1.34383 0.72583,1.61152c0.30603,0.15609 0.11367,-0.69671 0.3302,-0.98479c0.21356,-1.26587 0.76205,-3.62034 0.14581,-4.78725c-0.80596,-1.52616 -1.91771,-3.16129 -1.7369,-4.8777c0.12652,-1.20111 1.04587,-2.98078 1.68481,-4.23703c-0.04776,-0.34156 0.01469,-0.66281 0.10451,-0.92233c-1.42227,0.16913 -2.74218,0.6177 -4.06043,1.07327c0.14162,-0.30934 0.18396,-0.73104 -0.17535,-1.21011c-0.75,-1 -1.75,-0.25 -1.75,-0.25l-0.30834,0.32708c-2.15779,0.64734 -4.34961,0.92235 -6.47745,1.57622c-0.40435,0.12426 -0.78206,0.36088 -1.15766,0.59467c-0.24933,-0.07516 -0.48929,-0.17741 -0.7167,-0.31536z" fill="#533100"/><path d="M258.20252,162.1755c0,0.5 -0.5,0.5 -0.5,0.5l-0.25344,-0.00953c-4.36164,-0.86437 -7.46436,-1.187 -11.836,-0.31268c0,0 -0.49029,0.09806 -0.58835,-0.39223c-0.09806,-0.49029 0.39223,-0.58835 0.39223,-0.58835c4.49113,-0.89822 7.74767,-0.5751 12.2265,0.31233l0.05906,-0.00954c0,0 0.5,0 0.5,0.5z" fill="#533100"/><path d="M223.29629,162.01925c0,-0.5 0.5,-0.5 0.5,-0.5l-0.1211,0.08397c3.48342,-2.30035 8.8458,-1.95873 12.74237,-1.00655c0,0 0.48507,0.12127 0.3638,0.60634c-0.12127,0.48507 -0.60634,0.3638 -0.60634,0.3638c-3.54353,-0.91011 -8.77809,-1.26703 -11.94513,0.86845l-0.4336,0.08397c0,0 -0.5,0 -0.5,-0.5z" fill="#533100"/><path d="M254.45254,158.26925c0,-0.05963 0.00261,-0.11866 0.00772,-0.17697c-0.26131,0.05227 -0.51657,0.1037 -0.75304,0.1332c-2.31192,0.28843 -4.0526,1.0062 -6.17296,1.88993c0,0 -1.84615,0.76923 -2.61538,-1.07693c-0.61517,-1.47642 0.44235,-2.26408 0.89061,-2.52036c-0.08693,0.36432 -0.06218,0.87783 0.53604,1.27664c1.04006,0.69338 1.73344,-0.34669 1.73344,-0.34669c0.31615,-0.48075 0.67038,-0.93852 0.94844,-1.44226c0.1386,-0.25109 0.01554,-0.87711 0.29404,-0.80861c0.35801,0.08806 0.10798,0.98737 0.4765,0.99814c0.92583,0.02705 2.31832,-0.75026 3.60688,-1.42651c0.63662,0.73656 1.2687,1.47089 2.15908,1.77541c1.00042,0.34216 2.05011,-0.67588 3.10679,-0.63952c0.7739,0.02663 1.19732,1.10013 1.94848,1.26962c1.53822,2.4672 1.87806,5.85722 0.32996,8.18146c-0.37698,-0.85496 -0.92815,-1.58304 -1.46608,-1.75046c-1.6929,-0.52686 -3.37832,1.60549 -4.91301,1.87255c-1.89612,0.32996 -3.97105,-1.38854 -5.78327,-1.40854c-1.85038,-0.02042 -2.72736,1.14891 -3.96297,2.22649c-0.21132,-0.35822 -0.31541,-0.84008 -0.15532,-1.48043c0.48507,-1.94028 2.42535,-1.45521 2.42535,-1.45521l1.83965,0.46025c2.63501,0.61733 4.75707,0.62446 7.37615,-0.11165c0.30926,-0.08692 1.7152,-0.39978 1.79561,-1.07792c0.10583,-0.89258 -0.36993,-1.74376 -0.70991,-2.59737c-0.28089,0.15043 -0.6019,0.23573 -0.94281,0.23573c-1.10457,0 -2,-0.89543 -2,-2z" fill="#533100"/><path d="M258.71564,165.98465c0.29059,-0.09096 0.80847,0.85754 0.52439,0.74796c-0.41168,-0.15879 -0.83293,-0.29957 -1.26062,-0.41929c0.23018,-0.132 0.47194,-0.24594 0.73623,-0.32867z" fill="#008c01"/><path d="M256.44723,154.10548c0.02098,0.00385 0.04191,0.00783 0.0628,0.01193c0.0376,0.03937 0.07491,0.07937 0.11257,0.11801c-0.09402,-0.00386 -0.18744,-0.02462 -0.28021,-0.06689c-0.07698,-0.03507 -0.15114,-0.07407 -0.22282,-0.11653c0.10947,0.01567 0.2187,0.03347 0.32766,0.05348z" fill="#008c01"/><path d="M237.3144,160.23227c-0.13447,0.62751 -0.42714,1.01052 -0.76264,1.24132c0.09745,0.15818 0.18236,0.34461 0.24984,0.56395c0.58817,1.91156 -1.32339,2.49973 -1.32339,2.49973l-2.17209,0.66277c-0.08106,0.01267 -0.16237,0.02552 -0.24391,0.03852l0.74356,-0.49229c0,0 1,-0.75 0.25,-1.75c-0.75,-1 -1.75,-0.25 -1.75,-0.25l-0.30834,0.32708c-2.15779,0.64734 -4.34961,0.92235 -6.47745,1.57622c-0.99873,0.3069 -1.83492,1.29933 -2.87813,1.24144c-0.31062,-0.01724 -0.07907,-0.63807 -0.24681,-0.90007c-0.36485,-0.56987 -0.68465,-1.30566 -1.31796,-1.54395c-1.20248,-0.45243 -2.51429,0.26846 -3.78622,0.66934c-1.43501,-1.2743 -2.06382,-3.04288 -1.44684,-4.89547c0.14155,0.33716 0.45167,0.70651 1.13115,0.70651c0.81071,0 1.09562,-0.52581 1.19575,-0.89537c0.01437,-0.00864 0.022,-0.01372 0.022,-0.01372c0.56709,-0.37875 2.37559,-1.95957 3.04804,-1.74422c0.95144,0.3047 1.64973,1.58836 2.63564,1.42692c0.11048,-0.01809 0.21705,-0.03807 0.31999,-0.05978c-0.25701,0.53939 -0.74847,0.94555 -1.3426,1.08667c0.08389,0.22073 0.12982,0.46017 0.12982,0.71033c0,0.56664 -0.23565,1.07825 -0.61429,1.44216c0.05647,0.00479 0.10639,0.00986 0.14853,0.01564c3.43439,0.47118 6.48691,-0.08025 9.89343,-0.59463l0.19739,-0.06132l-1.65609,-0.69297c0,0 -1.1602,-0.51565 -1.22098,-1.64965c-1.6216,-0.22595 -3.25467,-0.45591 -4.86433,-0.43621c2.02694,-0.67032 2.49129,-2.06437 5.11995,-2.19604l2.19859,-0.00839c0.1066,-0.00035 0.21006,-0.01404 0.30879,-0.03949c1.02516,0.33804 2.0064,0.73614 3.05475,1.00466c0.16003,0.1194 0.34962,0.20138 0.5558,0.23298c-0.00878,0.1769 -0.03398,0.33695 -0.07239,0.48177c0.51524,0.19294 1.60466,0.78721 1.28145,2.29553z" fill="#533100"/><path d="M237.78514,158.99553c0,0 1.61747,1.17634 0.44113,2.79382c-1.17634,1.61747 -2.79382,0.44113 -2.79382,0.44113c-2.92744,-2.12905 -6.04154,-4.12699 -9.50435,-4.06884c1.23945,-0.70413 1.95761,-1.61638 4.0593,-1.72166l2.19859,-0.00839c0.35124,-0.00115 0.66838,-0.14716 0.89477,-0.38142c1.60214,0.80585 3.16196,1.8236 4.70438,2.94536z" fill="#533100"/><path d="M219.28779,158.70425c-0.04939,-0.07902 -0.09279,-0.15665 -0.13066,-0.23287c0.74152,-0.5516 1.64956,-1.1616 2.08381,-1.02253c0.66477,0.21289 1.20596,0.9037 1.80801,1.24558c-0.04743,0.01692 -0.09492,0.03427 -0.14249,0.05205l-0.86267,0.59376c0,0 -1.696,1.06 -2.75599,-0.636z" fill="#533100"/><path d="M235.36438,160.77111c-0.15811,0.47434 -0.63246,0.31623 -0.63246,0.31623l-0.31064,-0.13059c-1.51042,0 -3.02083,0 -4.53125,0c0,0 -0.5,0 -0.5,-0.5c0,-0.5 0.5,-0.5 0.5,-0.5c1.51042,0 3.02083,0 4.53125,0l0.62686,0.18191c0,0 0.47434,0.15811 0.31623,0.63246z" fill="#533100"/><path d="M252.681,133.18036c-0.22361,0.44721 -0.67082,0.22361 -0.67082,0.22361l-0.08889,-0.10346c-2.8098,0 -5.92489,-0.31077 -8.59189,0.59934c0,0 -0.47434,0.15811 -0.63246,-0.31623c-0.15811,-0.47434 0.31623,-0.63246 0.31623,-0.63246c2.80916,-0.91756 5.96235,-0.65066 8.90811,-0.65066l0.53611,0.20904c0,0 0.44721,0.22361 0.22361,0.67082z" fill="#004200"/><path d="M236.3785,131.99481c0,0 0.4932,0.0822 0.411,0.5754c-0.0822,0.4932 -0.5754,0.411 -0.5754,0.411c-1.93022,-0.32478 -6.80619,-2.46471 -8.5467,-1.17092l-0.13681,0.07002c-0.01289,-0.27967 -0.12872,-0.58743 -0.40373,-0.91086c2.38307,-1.46756 6.72857,0.6092 9.25164,1.02536z" fill="#004200"/><path d="M241.92129,66.738c2,0 2,2 2,2l-0.00508,0.61124c-0.248,2.8713 -1.88662,4.91283 -2.16058,7.62298l0.4038,0.93986c2.17798,3.14618 5.2661,6.70008 3.83398,10.87041c-0.60261,1.75482 -2.48403,2.77013 -3.5381,4.29704c-0.47905,0.69395 0.4167,2.58455 0.4845,2.89761c0.29137,1.34526 0.41686,2.71632 0.47107,4.09132c0.77999,-0.73877 1.57121,-1.4618 2.38952,-2.08277c0.00251,0.00313 0.00504,0.00624 0.00761,0.00935c1.61871,1.96112 5.08338,-0.01713 6.95324,0.69196c1.30493,0.49486 1.82552,2.60015 3.21899,2.67723c1.01178,0.05596 2.99391,-1.61009 3.41598,-2.85687c0.46505,0.03947 0.93313,-0.02959 1.33858,-0.20095c0.93838,1.3276 1.4404,2.95585 1.39345,4.62104c-0.16362,0.03917 -0.31474,0.11052 -0.44628,0.20697l-1.11013,0.79295c-1.35698,0.48414 -3.50481,0.43721 -4.6669,1.02729c-0.56051,0.28462 -1.01603,0.76487 -1.52111,1.14375c-0.11583,0.00538 -0.23111,0.01099 -0.34575,0.01677c-0.37563,-0.51533 -0.76026,-1.01548 -1.32684,-1.22357c-2.03571,-0.74768 -4.65697,0.68203 -6.48615,1.41192c0,0 -0.67481,0.26992 -0.7895,0.91269c-0.16827,-0.05582 -0.34042,-0.11025 -0.51689,-0.16295c-0.49759,-0.14859 -1.00056,-0.2872 -1.50216,-0.43056c-0.01174,0.02667 -0.01889,0.04097 -0.01889,0.04097l-0.25779,0.49182c-1.65776,2.3964 -0.2121,4.03775 -0.31338,6.80387c-0.08261,2.25602 -1.39675,4.30947 -1.40523,6.50943c-0.00878,2.28012 1.54189,4.26753 1.7139,6.56703c0.00207,0.02773 0.00384,0.05646 0.0053,0.08615c0.22568,-0.05736 0.45318,-0.11951 0.68227,-0.18512c0.18481,0.39308 0.42615,0.72567 0.80932,0.9065c2.06861,0.97625 4.01751,-2.32949 5.58775,-2.52474c0.76148,-0.09468 0.87083,1.4095 1.59674,1.65825c0.59035,0.20229 1.22967,-0.31904 1.85205,-0.27353c0.99639,0.07286 1.56426,1.24405 2.32059,1.8968l0.75592,-0.14379c0.70481,1.25111 1.00047,2.73163 0.86022,4.16974c-0.41977,-0.17416 -0.94155,-0.35373 -1.5819,-0.53877c-0.37708,-0.10896 -2.4654,2.31919 -3.52879,2.26844c-2.46533,-0.11767 -2.46961,0.37443 -4.57514,1.40912c-0.7859,0.3862 -1.48625,-1.45059 -2.32947,-1.2144c-1.07814,0.30199 -1.66594,1.61687 -2.09854,2.65279c-0.01854,-0.00642 -0.037,-0.01284 -0.05538,-0.01926l-0.10236,-0.0341c-0.98729,-0.21282 -1.92187,-0.45961 -2.74802,-0.69644c-1.16155,2.13582 -2.4976,4.52042 -1.63618,6.89309c1.11329,3.06643 5.14383,2.57367 6.1237,6.02298c0.33958,1.19537 0.31836,2.5421 -0.0542,3.7276c-0.24734,0.78704 -1.2408,1.11716 -1.68652,1.81139c-0.81491,1.26925 -0.19346,3.85462 -0.19249,5.23575c0,0 0,2 -2,2c-2,0 -2,-2 -2,-2c0.00191,-2.53404 -0.5455,-4.87438 0.745,-7.26425c0.68382,-1.26636 1.96435,-0.79528 1.38428,-2.2735c-0.44611,-1.13686 -1.36483,-0.94982 -2.31773,-1.60093c-1.60466,-1.09645 -3.03253,-2.37823 -3.74607,-4.25109c-1.17846,-3.09315 -0.16487,-5.88391 1.12066,-8.58415c-0.20399,0.03641 -0.34239,0.03641 -0.34239,0.03641l-0.00001,-0.00001h-0.42168c-0.37078,0.10272 -0.74417,0.20021 -1.11923,0.28923c0.01991,-0.08185 0.03116,-0.16623 0.03256,-0.25324c0.01588,-0.9918 -0.93934,-1.87562 -1.7991,-2.37033c-0.43621,-0.25099 -0.93779,0.67116 -1.41763,0.51942c-1.71316,-0.54173 -1.59727,-3.67702 -3.73315,-2.33857c0.06414,-0.61206 -0.34945,-1.38514 -1.9159,-2.17013c-0.76678,-0.38425 -1.59865,0.63052 -2.35915,1.02704c-1.43974,0.75067 -2.70452,1.74643 -3.83836,2.88026c-0.47632,-0.44473 -0.83587,-0.95481 -0.97555,-1.53129c-0.6633,-2.73768 1.46726,-4.96492 3.53293,-6.09382c4.38682,-2.39745 10.43053,0.20533 14.71997,1.43088c0,0 0.53017,0.15148 0.95423,0.57373c0.49271,0.29255 0.92967,0.61828 1.35313,0.96754c0.09425,-0.77967 0.168,-1.52334 0.14809,-1.8223c-0.16293,-2.44612 -1.71723,-4.31729 -1.7236,-6.87047c-0.00578,-2.31675 1.32077,-4.3172 1.40727,-6.61557c0.08118,-2.15682 -0.34337,-3.64878 -0.25695,-5.23485c0.04575,-0.1654 0.05964,-0.33959 0.0471,-0.51766c0.02424,-0.18776 0.05686,-0.37789 0.09947,-0.57159c-0.06523,0.02596 -0.13055,0.05173 -0.19597,0.0773c-0.21823,-0.70157 -0.75871,-1.39409 -1.3053,-1.79226c-1.16543,-0.84897 -1.93091,-0.10877 -2.68874,0.60351c-0.47592,-0.17271 -1.00171,-0.29429 -1.51084,-0.34677c-1.43978,-0.14842 -2.71209,0.17991 -3.99104,0.62722c-3.88996,-0.44332 -7.87045,-0.34479 -11.82629,-0.1339c-1.19081,-1.15374 -1.7368,-2.74447 -0.87894,-4.96785c0.00779,-0.02018 0.01568,-0.04031 0.02369,-0.06038c1.71179,-0.95939 3.48992,-2.0156 5.20557,-2.61989c0.58152,0.18267 0.98654,-0.09856 1.21506,-0.34779c0.38314,-0.08161 0.76143,-0.13286 1.13333,-0.14721c0.14323,-0.00553 0.28673,-0.0097 0.43047,-0.01261c0.69199,0.33779 1.27741,0.60551 1.63675,0.68616c3.72195,0.8353 7.62969,0.92303 11.40913,0.54835c0,0 0.89539,-0.08954 1.0908,-0.87638c0.17614,0.0985 0.35022,0.2002 0.5221,0.30518c-0.27828,-1.58733 -0.58569,-3.15584 -0.62525,-4.71537c-0.0987,-3.8917 2.61899,-3.89124 3.86144,-6.88881c0.96515,-2.32855 -2.19206,-5.57705 -3.35352,-7.25459l-0.9576,-2.02956c0,0 -0.27414,-0.60311 -0.15975,-1.27288c0.31512,-2.90555 2.02968,-4.959 2.17307,-7.82222l-0.00508,-0.32626c0,0 0,-2 2,-2z" fill="#533100"/><path d="M252.99115,109.57726c0.00381,0.01058 0.00774,0.02105 0.0118,0.03141c-0.03959,-0.00094 -0.07896,-0.00212 -0.11812,-0.00353c0.03541,-0.00935 0.07085,-0.01864 0.10631,-0.02788z" fill="#008c01"/><path d="M266.88549,51.60025c1.41421,-1.41421 2.82843,0 2.82843,0c2.0357,2.0357 4.85777,4.04656 6.22831,6.61694c0.6525,1.22374 1.32442,5.87557 0.63866,6.68601c-0.59593,0.70428 -2.39806,0.41374 -3.82735,-0.02902c0.40392,1.05863 0.54676,6.2267 -0.04754,6.7063c-2.2245,1.79516 -6.11073,-2.21949 -7.64009,-0.77486c-0.88696,0.83782 0.84806,5.70699 0.35481,6.70604c-0.39734,0.80478 -2.185,0.89537 -2.02206,1.77798c0.8356,2.09882 1.33468,4.33233 1.03547,6.62311c-0.15902,1.21751 0.32622,3.02331 -0.7549,3.60536c-2.5827,1.39048 -8.39652,-3.53909 -10.25887,-0.76228c-0.65393,0.97503 0.03912,2.3479 0.03268,3.5219l-0.13388,0.21842l0.08915,0.02229l-0.4999,1.99962c-0.20212,0.89064 -0.99863,1.55552 -1.95043,1.55552c-0.83148,0 -1.54444,-0.50739 -1.84617,-1.22944l-1.00156,-2.25351l0.01571,-0.00698c-0.01774,-0.02725 -0.03532,-0.05461 -0.05275,-0.08209c-2.73585,-4.31318 -1.01936,-8.58197 2.22081,-11.32494c-4.27862,-1.73542 -6.29219,-6.60223 -7.00574,-11.00863c-1.51438,-0.55807 -1.17715,-2.24422 -1.17715,-2.24422c1.39132,-6.6708 6.88067,-13.56088 13.83727,-15.09051c2.45083,-0.53889 5.79766,-0.55641 8.34486,-0.79047l0.11921,-0.00225c0.27659,-0.23555 1.25809,-0.95006 2.32251,-0.27759c0.04617,-0.05418 0.09626,-0.10843 0.15052,-0.16269z" fill="#533100"/></g></g></svg>